G04*
G04 #@! TF.GenerationSoftware,Altium Limited,Altium Designer,25.4.2 (15)*
G04*
G04 Layer_Color=255*
%FSLAX44Y44*%
%MOMM*%
G71*
G04*
G04 #@! TF.SameCoordinates,E3562E81-9C74-4326-8BCA-3B8FE58CD66A*
G04*
G04*
G04 #@! TF.FilePolarity,Positive*
G04*
G01*
G75*
%ADD46C,4.0000*%
%ADD47C,2.0000*%
%ADD48C,1.5000*%
%ADD49C,3.0000*%
D46*
X640000Y270000D02*
D03*
X120000Y450000D02*
D03*
D47*
X50000Y305000D02*
D03*
Y340000D02*
D03*
X850000Y255000D02*
D03*
Y150000D02*
D03*
Y185000D02*
D03*
Y220000D02*
D03*
Y50000D02*
D03*
Y85000D02*
D03*
X50000Y459200D02*
D03*
Y510000D02*
D03*
X61900Y125400D02*
D03*
X125400Y150800D02*
D03*
X261900Y125400D02*
D03*
X325400Y150800D02*
D03*
X461900Y125400D02*
D03*
X525400Y150800D02*
D03*
X661900Y125400D02*
D03*
X725400Y150800D02*
D03*
X831000Y400800D02*
D03*
Y350000D02*
D03*
Y451600D02*
D03*
Y502400D02*
D03*
D48*
X485500Y563730D02*
D03*
X460100D02*
D03*
X434700D02*
D03*
X409300D02*
D03*
X383900D02*
D03*
X358500D02*
D03*
X333100D02*
D03*
X307700D02*
D03*
X282300D02*
D03*
X256900D02*
D03*
X231500D02*
D03*
X206100D02*
D03*
X180700D02*
D03*
X155300D02*
D03*
X129900D02*
D03*
X104500D02*
D03*
D49*
X50000Y250000D02*
D03*
Y560000D02*
D03*
X800000D02*
D03*
Y250000D02*
D03*
M02*
