G04*
G04 #@! TF.GenerationSoftware,Altium Limited,Altium Designer,25.4.2 (15)*
G04*
G04 Layer_Physical_Order=1*
G04 Layer_Color=255*
%FSLAX44Y44*%
%MOMM*%
G71*
G04*
G04 #@! TF.SameCoordinates,E3562E81-9C74-4326-8BCA-3B8FE58CD66A*
G04*
G04*
G04 #@! TF.FilePolarity,Positive*
G04*
G01*
G75*
%ADD12C,0.5000*%
%ADD15C,0.1270*%
%ADD17R,0.6000X0.7000*%
%ADD18R,1.3800X0.9200*%
%ADD19R,0.9200X1.3800*%
G04:AMPARAMS|DCode=20|XSize=1.97mm|YSize=0.59mm|CornerRadius=0.0738mm|HoleSize=0mm|Usage=FLASHONLY|Rotation=0.000|XOffset=0mm|YOffset=0mm|HoleType=Round|Shape=RoundedRectangle|*
%AMROUNDEDRECTD20*
21,1,1.9700,0.4425,0,0,0.0*
21,1,1.8225,0.5900,0,0,0.0*
1,1,0.1475,0.9113,-0.2213*
1,1,0.1475,-0.9113,-0.2213*
1,1,0.1475,-0.9113,0.2213*
1,1,0.1475,0.9113,0.2213*
%
%ADD20ROUNDEDRECTD20*%
G04:AMPARAMS|DCode=21|XSize=0.28mm|YSize=1.56mm|CornerRadius=0.07mm|HoleSize=0mm|Usage=FLASHONLY|Rotation=90.000|XOffset=0mm|YOffset=0mm|HoleType=Round|Shape=RoundedRectangle|*
%AMROUNDEDRECTD21*
21,1,0.2800,1.4200,0,0,90.0*
21,1,0.1400,1.5600,0,0,90.0*
1,1,0.1400,0.7100,0.0700*
1,1,0.1400,0.7100,-0.0700*
1,1,0.1400,-0.7100,-0.0700*
1,1,0.1400,-0.7100,0.0700*
%
%ADD21ROUNDEDRECTD21*%
G04:AMPARAMS|DCode=22|XSize=0.28mm|YSize=1.56mm|CornerRadius=0.07mm|HoleSize=0mm|Usage=FLASHONLY|Rotation=0.000|XOffset=0mm|YOffset=0mm|HoleType=Round|Shape=RoundedRectangle|*
%AMROUNDEDRECTD22*
21,1,0.2800,1.4200,0,0,0.0*
21,1,0.1400,1.5600,0,0,0.0*
1,1,0.1400,0.0700,-0.7100*
1,1,0.1400,-0.0700,-0.7100*
1,1,0.1400,-0.0700,0.7100*
1,1,0.1400,0.0700,0.7100*
%
%ADD22ROUNDEDRECTD22*%
G04:AMPARAMS|DCode=23|XSize=1.57mm|YSize=0.41mm|CornerRadius=0.0513mm|HoleSize=0mm|Usage=FLASHONLY|Rotation=90.000|XOffset=0mm|YOffset=0mm|HoleType=Round|Shape=RoundedRectangle|*
%AMROUNDEDRECTD23*
21,1,1.5700,0.3075,0,0,90.0*
21,1,1.4675,0.4100,0,0,90.0*
1,1,0.1025,0.1538,0.7338*
1,1,0.1025,0.1538,-0.7338*
1,1,0.1025,-0.1538,-0.7338*
1,1,0.1025,-0.1538,0.7338*
%
%ADD23ROUNDEDRECTD23*%
%ADD24R,0.8890X1.2192*%
%ADD25R,6.7310X6.5024*%
%ADD26R,2.0000X1.3000*%
%ADD27R,2.0000X2.0000*%
%AMCUSTOMSHAPE43*
4,1,5,0.0000,1.0000,-0.6000,0.2000,-0.6000,-1.0000,0.6000,-1.0000,0.6000,0.2000,0.0000,1.0000,0.0*%
%ADD43CUSTOMSHAPE43*%

%AMCUSTOMSHAPE44*
4,1,5,-0.6000,0.9000,0.6000,0.9000,0.6000,-0.9000,0.0000,-0.1000,-0.6000,-0.9000,-0.6000,0.9000,0.0*%
%ADD44CUSTOMSHAPE44*%

%ADD45C,1.0000*%
%ADD46C,4.0000*%
%ADD47C,2.0000*%
%ADD48C,1.5000*%
%ADD49C,3.0000*%
%ADD50C,0.7000*%
G36*
X45551Y576958D02*
X44895Y576828D01*
X41711Y575508D01*
X38844Y573593D01*
X36407Y571156D01*
X34492Y568289D01*
X34000Y567102D01*
Y577000D01*
X45551Y576958D01*
D02*
G37*
G36*
X789810Y574238D02*
X788844Y573593D01*
X786407Y571156D01*
X784492Y568289D01*
X783173Y565105D01*
X782500Y561724D01*
Y558276D01*
X783173Y554895D01*
X784492Y551711D01*
X786407Y548844D01*
X788844Y546407D01*
X791711Y544492D01*
X794895Y543172D01*
X798276Y542500D01*
X801724D01*
X805105Y543172D01*
X808289Y544492D01*
X811156Y546407D01*
X813593Y548844D01*
X815508Y551711D01*
X816827Y554895D01*
X817500Y558276D01*
Y561724D01*
X816827Y565105D01*
X815508Y568289D01*
X813593Y571156D01*
X811156Y573593D01*
X810302Y574163D01*
X855000Y574000D01*
Y329000D01*
X797998D01*
X798000Y329005D01*
Y330995D01*
X797239Y332832D01*
X795832Y334239D01*
X793995Y335000D01*
X792005D01*
X790168Y334239D01*
X788761Y332832D01*
X788393Y331942D01*
X786170D01*
Y336320D01*
X769830D01*
Y329000D01*
X740000D01*
Y398858D01*
X819853D01*
X820498Y396450D01*
X821982Y393880D01*
X824080Y391782D01*
X826650Y390298D01*
X829516Y389530D01*
X832484D01*
X835350Y390298D01*
X837920Y391782D01*
X840018Y393880D01*
X841502Y396450D01*
X842270Y399316D01*
Y402284D01*
X841502Y405150D01*
X840018Y407720D01*
X837920Y409818D01*
X835350Y411302D01*
X832484Y412070D01*
X829516D01*
X826650Y411302D01*
X824080Y409818D01*
X821982Y407720D01*
X820498Y405150D01*
X819853Y402742D01*
X740000D01*
X740000Y479000D01*
X396747D01*
X360373Y515373D01*
X359743Y515794D01*
X359000Y515942D01*
X341000D01*
X340257Y515794D01*
X339627Y515373D01*
X333647Y509393D01*
X333226Y508763D01*
X333078Y508020D01*
Y507504D01*
X332787Y507447D01*
X332197Y507053D01*
X331804Y506463D01*
X331770Y506295D01*
X331737Y506463D01*
X331343Y507053D01*
X330753Y507447D01*
X330462Y507504D01*
Y529715D01*
X332804Y532058D01*
X404970D01*
X405713Y532206D01*
X406343Y532627D01*
X430021Y556305D01*
X431315Y555558D01*
X433545Y554960D01*
X435855D01*
X438085Y555558D01*
X440085Y556712D01*
X441718Y558345D01*
X442872Y560345D01*
X443470Y562575D01*
Y564885D01*
X442872Y567115D01*
X441718Y569115D01*
X440085Y570748D01*
X438085Y571902D01*
X435855Y572500D01*
X433545D01*
X431315Y571902D01*
X429315Y570748D01*
X427682Y569115D01*
X426528Y567115D01*
X425930Y564885D01*
Y562575D01*
X426528Y560345D01*
X427275Y559051D01*
X404165Y535942D01*
X332000D01*
X332000Y535942D01*
X331257Y535794D01*
X330627Y535373D01*
X327147Y531894D01*
X326726Y531263D01*
X326578Y530520D01*
Y507504D01*
X326287Y507447D01*
X325697Y507053D01*
X325303Y506463D01*
X325270Y506295D01*
X325237Y506463D01*
X324843Y507053D01*
X324253Y507447D01*
X323962Y507504D01*
Y534216D01*
X327804Y538058D01*
X385570D01*
X386313Y538206D01*
X386943Y538627D01*
X404621Y556305D01*
X405915Y555558D01*
X408145Y554960D01*
X410455D01*
X412685Y555558D01*
X414685Y556712D01*
X416318Y558345D01*
X417472Y560345D01*
X418070Y562575D01*
Y564885D01*
X417472Y567115D01*
X416318Y569115D01*
X414685Y570748D01*
X412685Y571902D01*
X410455Y572500D01*
X408145D01*
X405915Y571902D01*
X403915Y570748D01*
X402282Y569115D01*
X401128Y567115D01*
X400530Y564885D01*
Y562575D01*
X401128Y560345D01*
X401875Y559051D01*
X384766Y541942D01*
X327000D01*
X327000Y541942D01*
X326257Y541795D01*
X325627Y541373D01*
X325626Y541373D01*
X320647Y536394D01*
X320226Y535763D01*
X320078Y535020D01*
Y507504D01*
X319787Y507447D01*
X319197Y507053D01*
X318804Y506463D01*
X318770Y506295D01*
X318737Y506463D01*
X318343Y507053D01*
X317753Y507447D01*
X317462Y507504D01*
Y538716D01*
X322804Y544058D01*
X366170D01*
X366913Y544206D01*
X367543Y544627D01*
X379221Y556305D01*
X380515Y555558D01*
X382745Y554960D01*
X385055D01*
X387285Y555558D01*
X389285Y556712D01*
X390918Y558345D01*
X392072Y560345D01*
X392670Y562575D01*
Y564885D01*
X392072Y567115D01*
X390918Y569115D01*
X389285Y570748D01*
X387285Y571902D01*
X385055Y572500D01*
X382745D01*
X380515Y571902D01*
X378515Y570748D01*
X376882Y569115D01*
X375728Y567115D01*
X375130Y564885D01*
Y562575D01*
X375728Y560345D01*
X376474Y559051D01*
X365365Y547942D01*
X322000D01*
X322000Y547942D01*
X321257Y547794D01*
X320627Y547373D01*
X320626Y547373D01*
X314147Y540894D01*
X313726Y540263D01*
X313578Y539520D01*
Y507504D01*
X313287Y507447D01*
X312697Y507053D01*
X312304Y506463D01*
X312270Y506295D01*
X312237Y506463D01*
X311843Y507053D01*
X311253Y507447D01*
X310962Y507504D01*
Y541216D01*
X319240Y549493D01*
X346206D01*
X346949Y549641D01*
X347579Y550062D01*
X353821Y556305D01*
X355115Y555558D01*
X357345Y554960D01*
X359655D01*
X361885Y555558D01*
X363885Y556712D01*
X365518Y558345D01*
X366672Y560345D01*
X367270Y562575D01*
Y564885D01*
X366672Y567115D01*
X365518Y569115D01*
X363885Y570748D01*
X361885Y571902D01*
X359655Y572500D01*
X357345D01*
X355115Y571902D01*
X353115Y570748D01*
X351482Y569115D01*
X350328Y567115D01*
X349730Y564885D01*
Y562575D01*
X350328Y560345D01*
X351074Y559051D01*
X345401Y553378D01*
X318436D01*
X317692Y553230D01*
X317062Y552809D01*
X307647Y543394D01*
X307226Y542763D01*
X307078Y542020D01*
Y507504D01*
X306787Y507447D01*
X306197Y507053D01*
X305804Y506463D01*
X305770Y506295D01*
X305737Y506463D01*
X305343Y507053D01*
X304753Y507447D01*
X304462Y507504D01*
Y527480D01*
X304314Y528223D01*
X303894Y528853D01*
X280373Y552373D01*
X279743Y552794D01*
X279000Y552942D01*
X245035D01*
X238925Y559051D01*
X239672Y560345D01*
X240270Y562575D01*
Y564885D01*
X239672Y567115D01*
X238518Y569115D01*
X236885Y570748D01*
X234885Y571902D01*
X232655Y572500D01*
X230345D01*
X228115Y571902D01*
X226115Y570748D01*
X224482Y569115D01*
X223328Y567115D01*
X222730Y564885D01*
Y562575D01*
X223328Y560345D01*
X224482Y558345D01*
X226115Y556712D01*
X228115Y555558D01*
X230345Y554960D01*
X232655D01*
X234885Y555558D01*
X236179Y556305D01*
X242857Y549627D01*
X243487Y549206D01*
X244230Y549058D01*
X278195D01*
X300578Y526675D01*
Y507504D01*
X300287Y507447D01*
X299697Y507053D01*
X299303Y506463D01*
X299270Y506295D01*
X299237Y506463D01*
X298843Y507053D01*
X298253Y507447D01*
X297962Y507504D01*
Y524980D01*
X297815Y525723D01*
X297393Y526353D01*
X277373Y546373D01*
X276743Y546795D01*
X276000Y546942D01*
X240805D01*
X235373Y552373D01*
X234743Y552794D01*
X234000Y552942D01*
X194235D01*
X188125Y559051D01*
X188872Y560345D01*
X189470Y562575D01*
Y564885D01*
X188872Y567115D01*
X187718Y569115D01*
X186085Y570748D01*
X184085Y571902D01*
X181855Y572500D01*
X179545D01*
X177315Y571902D01*
X175315Y570748D01*
X173682Y569115D01*
X172528Y567115D01*
X171930Y564885D01*
Y562575D01*
X172528Y560345D01*
X173682Y558345D01*
X175315Y556712D01*
X177315Y555558D01*
X179545Y554960D01*
X181855D01*
X184085Y555558D01*
X185379Y556305D01*
X192057Y549627D01*
X192687Y549206D01*
X193430Y549058D01*
X233195D01*
X238626Y543627D01*
X238627Y543627D01*
X239257Y543205D01*
X240000Y543058D01*
X240000Y543058D01*
X275196D01*
X294078Y524175D01*
Y507504D01*
X293787Y507447D01*
X293197Y507053D01*
X292803Y506463D01*
X292770Y506295D01*
X292737Y506463D01*
X292343Y507053D01*
X291753Y507447D01*
X291057Y507585D01*
X290155D01*
Y498430D01*
Y489275D01*
X291057D01*
X291753Y489413D01*
X292343Y489807D01*
X292737Y490397D01*
X292770Y490565D01*
X292803Y490397D01*
X293197Y489807D01*
X293787Y489413D01*
X294482Y489275D01*
X297558D01*
X298253Y489413D01*
X298843Y489807D01*
X299237Y490397D01*
X299270Y490565D01*
X299303Y490397D01*
X299697Y489807D01*
X300287Y489413D01*
X300983Y489275D01*
X304058D01*
X304753Y489413D01*
X305343Y489807D01*
X305737Y490397D01*
X305770Y490565D01*
X305804Y490397D01*
X306197Y489807D01*
X306787Y489413D01*
X307482Y489275D01*
X310557D01*
X311253Y489413D01*
X311843Y489807D01*
X312237Y490397D01*
X312270Y490565D01*
X312304Y490397D01*
X312697Y489807D01*
X313287Y489413D01*
X313983Y489275D01*
X317057D01*
X317753Y489413D01*
X318343Y489807D01*
X318737Y490397D01*
X318770Y490565D01*
X318804Y490397D01*
X319197Y489807D01*
X319787Y489413D01*
X320482Y489275D01*
X323558D01*
X324253Y489413D01*
X324843Y489807D01*
X325237Y490397D01*
X325270Y490565D01*
X325303Y490397D01*
X325697Y489807D01*
X326287Y489413D01*
X326983Y489275D01*
X330057D01*
X330753Y489413D01*
X331343Y489807D01*
X331737Y490397D01*
X331770Y490565D01*
X331804Y490397D01*
X332197Y489807D01*
X332787Y489413D01*
X333483Y489275D01*
X336558D01*
X337253Y489413D01*
X337843Y489807D01*
X338237Y490397D01*
X338270Y490565D01*
X338303Y490397D01*
X338697Y489807D01*
X339287Y489413D01*
X339983Y489275D01*
X343058D01*
X343753Y489413D01*
X344343Y489807D01*
X344737Y490397D01*
X344875Y491092D01*
Y497058D01*
X349393D01*
X349761Y496168D01*
X351168Y494761D01*
X353005Y494000D01*
X354995D01*
X356832Y494761D01*
X358239Y496168D01*
X359000Y498005D01*
Y499995D01*
X358239Y501832D01*
X356832Y503239D01*
X354995Y504000D01*
X353005D01*
X351168Y503239D01*
X349761Y501832D01*
X349393Y500942D01*
X344875D01*
Y505768D01*
X344737Y506463D01*
X344343Y507053D01*
X343753Y507447D01*
X343058Y507585D01*
X339983D01*
X339287Y507447D01*
X338697Y507053D01*
X338303Y506463D01*
X338270Y506295D01*
X338237Y506463D01*
X337843Y507053D01*
X337253Y507447D01*
X337203Y507456D01*
X341805Y512058D01*
X358195D01*
X391253Y479000D01*
X34000D01*
Y552898D01*
X34492Y551711D01*
X36407Y548844D01*
X38844Y546407D01*
X41711Y544492D01*
X44895Y543172D01*
X48276Y542500D01*
X51724D01*
X55105Y543172D01*
X58289Y544492D01*
X61156Y546407D01*
X63593Y548844D01*
X65508Y551711D01*
X66828Y554895D01*
X67500Y558276D01*
Y561724D01*
X66828Y565105D01*
X65508Y568289D01*
X63593Y571156D01*
X61156Y573593D01*
X58289Y575508D01*
X55105Y576828D01*
X54616Y576925D01*
X789810Y574238D01*
D02*
G37*
G36*
X570827Y399427D02*
X571457Y399006D01*
X572200Y398858D01*
X582000D01*
Y325492D01*
X529170D01*
Y330320D01*
X512830D01*
Y325492D01*
X485170D01*
Y329420D01*
X468830D01*
Y325492D01*
X465550D01*
X464807Y325345D01*
X464177Y324923D01*
X460546Y321292D01*
X456909D01*
Y321562D01*
X456754Y322346D01*
X456310Y323010D01*
X455646Y323453D01*
X454863Y323609D01*
X436637D01*
X435854Y323453D01*
X435190Y323010D01*
X434747Y322346D01*
X434591Y321562D01*
Y317138D01*
X434747Y316354D01*
X435190Y315690D01*
X435854Y315247D01*
X436637Y315091D01*
X454863D01*
X455646Y315247D01*
X456310Y315690D01*
X456754Y316354D01*
X456909Y317138D01*
Y317408D01*
X461350D01*
X462093Y317556D01*
X462723Y317977D01*
X466354Y321608D01*
X468830D01*
Y317680D01*
X485170D01*
Y321608D01*
X512830D01*
Y318580D01*
X529170D01*
Y321608D01*
X582000D01*
Y321292D01*
Y306392D01*
X529170D01*
Y310420D01*
X512830D01*
Y306392D01*
X485170D01*
Y310320D01*
X468830D01*
Y306392D01*
X463608D01*
X461977Y308023D01*
X461346Y308444D01*
X460603Y308592D01*
X456909D01*
Y308862D01*
X456754Y309646D01*
X456310Y310310D01*
X455646Y310753D01*
X454863Y310909D01*
X436637D01*
X435854Y310753D01*
X435190Y310310D01*
X434747Y309646D01*
X434591Y308862D01*
Y304438D01*
X434747Y303654D01*
X435190Y302990D01*
X435854Y302547D01*
X436637Y302391D01*
X454863D01*
X455646Y302547D01*
X456310Y302990D01*
X456754Y303654D01*
X456909Y304438D01*
Y304708D01*
X459799D01*
X461430Y303077D01*
X462060Y302656D01*
X462803Y302508D01*
X462803Y302508D01*
X468830D01*
Y298580D01*
X485170D01*
Y302508D01*
X512830D01*
Y298680D01*
X529170D01*
Y302508D01*
X582000D01*
X582000Y201747D01*
X563899Y219847D01*
X563269Y220268D01*
X562526Y220416D01*
X313330D01*
X304125Y229622D01*
Y269761D01*
X304270Y269978D01*
X304650Y269410D01*
X305301Y268974D01*
X306070Y268822D01*
X307470D01*
X308239Y268974D01*
X308890Y269410D01*
X309270Y269978D01*
X309650Y269410D01*
X310301Y268974D01*
X311070Y268822D01*
X312470D01*
X313239Y268974D01*
X313890Y269410D01*
X314270Y269978D01*
X314650Y269410D01*
X315301Y268974D01*
X316070Y268822D01*
X317470D01*
X318239Y268974D01*
X318890Y269410D01*
X319270Y269978D01*
X319650Y269410D01*
X320301Y268974D01*
X321070Y268822D01*
X322470D01*
X323239Y268974D01*
X323890Y269410D01*
X324270Y269978D01*
X324650Y269410D01*
X325301Y268974D01*
X326070Y268822D01*
X327470D01*
X328239Y268974D01*
X328890Y269410D01*
X329270Y269978D01*
X329650Y269410D01*
X330301Y268974D01*
X331070Y268822D01*
X332470D01*
X333239Y268974D01*
X333890Y269410D01*
X334270Y269978D01*
X334650Y269410D01*
X334828Y269291D01*
Y254575D01*
X333885Y253631D01*
X332995Y254000D01*
X331006D01*
X329168Y253239D01*
X327761Y251832D01*
X327000Y249995D01*
Y248005D01*
X327761Y246168D01*
X329168Y244761D01*
X330058Y244393D01*
Y242000D01*
X330206Y241257D01*
X330627Y240627D01*
X333177Y238077D01*
X333807Y237656D01*
X334550Y237508D01*
X340830D01*
Y233580D01*
X357170D01*
Y245320D01*
X340830D01*
Y241392D01*
X335354D01*
X333942Y242805D01*
Y244393D01*
X334832Y244761D01*
X336239Y246168D01*
X337000Y248005D01*
Y249995D01*
X336631Y250884D01*
X338144Y252397D01*
X338564Y253027D01*
X338712Y253770D01*
X338712Y253770D01*
Y269291D01*
X338890Y269410D01*
X339270Y269978D01*
X339650Y269410D01*
X340301Y268974D01*
X341070Y268822D01*
X341135D01*
Y277930D01*
Y287039D01*
X341070D01*
X340301Y286886D01*
X339650Y286450D01*
X339270Y285882D01*
X338890Y286450D01*
X338239Y286886D01*
X337470Y287039D01*
X336070D01*
X335301Y286886D01*
X334650Y286450D01*
X334270Y285882D01*
X333890Y286450D01*
X333239Y286886D01*
X332470Y287039D01*
X331070D01*
X330301Y286886D01*
X329650Y286450D01*
X329270Y285882D01*
X328890Y286450D01*
X328239Y286886D01*
X327470Y287039D01*
X326070D01*
X325301Y286886D01*
X324650Y286450D01*
X324270Y285882D01*
X323890Y286450D01*
X323239Y286886D01*
X322470Y287039D01*
X321070D01*
X320301Y286886D01*
X319650Y286450D01*
X319270Y285882D01*
X318890Y286450D01*
X318239Y286886D01*
X317470Y287039D01*
X316070D01*
X315301Y286886D01*
X314650Y286450D01*
X314270Y285882D01*
X313890Y286450D01*
X313239Y286886D01*
X312470Y287039D01*
X311070D01*
X310301Y286886D01*
X309650Y286450D01*
X309270Y285882D01*
X308890Y286450D01*
X308239Y286886D01*
X307470Y287039D01*
X306070D01*
X305301Y286886D01*
X304650Y286450D01*
X304270Y285882D01*
X303890Y286450D01*
X303239Y286886D01*
X302470Y287039D01*
X301070D01*
X300301Y286886D01*
X299650Y286450D01*
X299270Y285882D01*
X298890Y286450D01*
X298239Y286886D01*
X297470Y287039D01*
X296070D01*
X295301Y286886D01*
X294650Y286450D01*
X294270Y285882D01*
X293890Y286450D01*
X293239Y286886D01*
X292470Y287039D01*
X291070D01*
X290301Y286886D01*
X289650Y286450D01*
X289270Y285882D01*
X288890Y286450D01*
X288239Y286886D01*
X287470Y287039D01*
X286070D01*
X285301Y286886D01*
X284650Y286450D01*
X284214Y285799D01*
X284062Y285030D01*
Y270830D01*
X284214Y270061D01*
X284650Y269410D01*
X284828Y269291D01*
Y229575D01*
X272195Y216942D01*
X134450D01*
X133707Y216794D01*
X133077Y216373D01*
X125077Y208373D01*
X124656Y207743D01*
X124508Y207000D01*
Y204170D01*
X120580D01*
Y187830D01*
X123458D01*
Y161947D01*
X121050Y161302D01*
X118480Y159818D01*
X116382Y157720D01*
X114898Y155150D01*
X114130Y152284D01*
Y149316D01*
X114898Y146450D01*
X116382Y143880D01*
X118480Y141782D01*
X121050Y140298D01*
X123916Y139530D01*
X126884D01*
X129750Y140298D01*
X132320Y141782D01*
X134418Y143880D01*
X135902Y146450D01*
X136670Y149316D01*
Y152284D01*
X135902Y155150D01*
X134418Y157720D01*
X132320Y159818D01*
X129750Y161302D01*
X127342Y161947D01*
Y187830D01*
X132320D01*
Y204170D01*
X128392D01*
Y206195D01*
X135255Y213058D01*
X273000D01*
X273743Y213206D01*
X274373Y213627D01*
X288143Y227397D01*
X288144Y227397D01*
X288564Y228027D01*
X288712Y228770D01*
Y269291D01*
X288890Y269410D01*
X289270Y269978D01*
X289650Y269410D01*
X289828Y269291D01*
Y208230D01*
X289976Y207487D01*
X290397Y206857D01*
X304627Y192627D01*
X305257Y192206D01*
X306000Y192058D01*
X318580D01*
Y185830D01*
X323458D01*
Y161947D01*
X321050Y161302D01*
X318480Y159818D01*
X316382Y157720D01*
X314898Y155150D01*
X314130Y152284D01*
Y149316D01*
X314898Y146450D01*
X316382Y143880D01*
X318480Y141782D01*
X321050Y140298D01*
X323916Y139530D01*
X326884D01*
X329750Y140298D01*
X332320Y141782D01*
X334418Y143880D01*
X335902Y146450D01*
X336670Y149316D01*
Y152284D01*
X335902Y155150D01*
X334418Y157720D01*
X332320Y159818D01*
X329750Y161302D01*
X327342Y161947D01*
Y185830D01*
X330320D01*
Y202170D01*
X318580D01*
Y195942D01*
X306805D01*
X293712Y209035D01*
Y269291D01*
X293890Y269410D01*
X294270Y269978D01*
X294650Y269410D01*
X294828Y269291D01*
Y222230D01*
X294976Y221487D01*
X295397Y220856D01*
X309627Y206627D01*
X310257Y206206D01*
X311000Y206058D01*
X364196D01*
X377626Y192627D01*
X377627Y192627D01*
X378257Y192206D01*
X379000Y192058D01*
X379000Y192058D01*
X519580D01*
Y185830D01*
X523458D01*
Y161947D01*
X521050Y161302D01*
X518480Y159818D01*
X516382Y157720D01*
X514898Y155150D01*
X514130Y152284D01*
Y149316D01*
X514898Y146450D01*
X516382Y143880D01*
X518480Y141782D01*
X521050Y140298D01*
X523916Y139530D01*
X526884D01*
X529750Y140298D01*
X532320Y141782D01*
X534418Y143880D01*
X535902Y146450D01*
X536670Y149316D01*
Y152284D01*
X535902Y155150D01*
X534418Y157720D01*
X532320Y159818D01*
X529750Y161302D01*
X527342Y161947D01*
Y185830D01*
X531320D01*
Y202170D01*
X519580D01*
Y195942D01*
X379804D01*
X366373Y209373D01*
X365743Y209794D01*
X365000Y209942D01*
X311805D01*
X298712Y223034D01*
Y269291D01*
X298890Y269410D01*
X299270Y269978D01*
X299650Y269410D01*
X300241Y269015D01*
Y228817D01*
X300389Y228074D01*
X300809Y227444D01*
X311152Y217101D01*
X311153Y217101D01*
X311783Y216679D01*
X312526Y216532D01*
X561721D01*
X582000Y196253D01*
Y142000D01*
X679000D01*
Y110000D01*
X520212D01*
X519939Y110658D01*
X517477Y114343D01*
X514343Y117477D01*
X510658Y119939D01*
X506563Y121635D01*
X502216Y122500D01*
X497784D01*
X493437Y121635D01*
X489342Y119939D01*
X485657Y117477D01*
X482523Y114343D01*
X480061Y110658D01*
X479788Y110000D01*
X320212D01*
X319939Y110658D01*
X317477Y114343D01*
X314343Y117477D01*
X310658Y119939D01*
X306563Y121635D01*
X302216Y122500D01*
X297784D01*
X293437Y121635D01*
X289342Y119939D01*
X285657Y117477D01*
X282523Y114343D01*
X280061Y110658D01*
X279788Y110000D01*
X120212D01*
X119939Y110658D01*
X117477Y114343D01*
X114343Y117477D01*
X110658Y119939D01*
X106563Y121635D01*
X102216Y122500D01*
X97784D01*
X93437Y121635D01*
X89342Y119939D01*
X85657Y117477D01*
X82523Y114343D01*
X80061Y110658D01*
X79788Y110000D01*
X35000D01*
Y240950D01*
X36407Y238844D01*
X38844Y236407D01*
X41711Y234492D01*
X44895Y233172D01*
X48276Y232500D01*
X51724D01*
X55105Y233172D01*
X58289Y234492D01*
X61156Y236407D01*
X63593Y238844D01*
X65508Y241711D01*
X66828Y244895D01*
X67500Y248276D01*
Y251724D01*
X66828Y255105D01*
X65508Y258289D01*
X63593Y261156D01*
X61156Y263593D01*
X58289Y265508D01*
X55105Y266828D01*
X51724Y267500D01*
X48276D01*
X44895Y266828D01*
X41711Y265508D01*
X38844Y263593D01*
X36407Y261156D01*
X35000Y259050D01*
X35000Y453998D01*
X39978Y454019D01*
X40982Y452280D01*
X43080Y450182D01*
X45650Y448698D01*
X48516Y447930D01*
X51484D01*
X54350Y448698D01*
X56920Y450182D01*
X59018Y452280D01*
X60070Y454102D01*
X97906Y454258D01*
X97500Y452216D01*
Y447784D01*
X98365Y443437D01*
X100061Y439342D01*
X102523Y435657D01*
X105657Y432523D01*
X109342Y430061D01*
X113437Y428365D01*
X117784Y427500D01*
X122216D01*
X126563Y428365D01*
X130658Y430061D01*
X134343Y432523D01*
X137477Y435657D01*
X139939Y439342D01*
X141635Y443437D01*
X142500Y447784D01*
Y452216D01*
X142057Y454441D01*
X413020Y455563D01*
X427935Y455625D01*
Y442393D01*
X418212D01*
X417972Y442972D01*
X417000Y443375D01*
X405000D01*
X404028Y442972D01*
X403625Y442000D01*
Y424000D01*
X403665Y423905D01*
X403639Y423806D01*
X403861Y423430D01*
X404028Y423028D01*
X404123Y422989D01*
X404175Y422900D01*
X404597Y422792D01*
X405000Y422625D01*
X405095Y422665D01*
X405194Y422639D01*
X405569Y422861D01*
X405972Y423028D01*
X406011Y423123D01*
X406100Y423175D01*
X411000Y429709D01*
X415900Y423175D01*
X415989Y423123D01*
X416028Y423028D01*
X416431Y422861D01*
X416806Y422639D01*
X416905Y422665D01*
X417000Y422625D01*
X417403Y422792D01*
X417825Y422900D01*
X417877Y422989D01*
X417972Y423028D01*
X418139Y423430D01*
X418361Y423806D01*
X418335Y423905D01*
X418375Y424000D01*
Y429607D01*
X427935D01*
Y394924D01*
X497785D01*
Y455914D01*
X514271Y455983D01*
X570827Y399427D01*
D02*
G37*
G36*
X582000Y405170D02*
Y402742D01*
X573004D01*
X519742Y456005D01*
X582000Y456263D01*
Y405170D01*
D02*
G37*
%LPC*%
G36*
X461255Y572500D02*
X460735D01*
Y564365D01*
X468870D01*
Y564885D01*
X468272Y567115D01*
X467118Y569115D01*
X465485Y570748D01*
X463485Y571902D01*
X461255Y572500D01*
D02*
G37*
G36*
X459465D02*
X458945D01*
X456715Y571902D01*
X454715Y570748D01*
X453082Y569115D01*
X451928Y567115D01*
X451330Y564885D01*
Y564365D01*
X459465D01*
Y572500D01*
D02*
G37*
G36*
X131055D02*
X130535D01*
Y564365D01*
X138670D01*
Y564885D01*
X138072Y567115D01*
X136918Y569115D01*
X135285Y570748D01*
X133285Y571902D01*
X131055Y572500D01*
D02*
G37*
G36*
X129265D02*
X128745D01*
X126515Y571902D01*
X124515Y570748D01*
X122882Y569115D01*
X121728Y567115D01*
X121130Y564885D01*
Y564365D01*
X129265D01*
Y572500D01*
D02*
G37*
G36*
X486655D02*
X484345D01*
X482115Y571902D01*
X480115Y570748D01*
X478482Y569115D01*
X477328Y567115D01*
X476730Y564885D01*
Y562575D01*
X477328Y560345D01*
X478074Y559051D01*
X477177Y558153D01*
X476755Y557523D01*
X476608Y556780D01*
Y543170D01*
X472680D01*
Y526830D01*
X476608D01*
Y526354D01*
X469438Y519185D01*
X465420D01*
Y521170D01*
X453680D01*
Y504830D01*
X465420D01*
Y506058D01*
X481393D01*
X481761Y505168D01*
X482016Y504913D01*
Y502366D01*
X480005D01*
Y487634D01*
X491435D01*
Y502366D01*
X489704D01*
Y504633D01*
X490239Y505168D01*
X491000Y507005D01*
Y508995D01*
X490239Y510832D01*
X488832Y512239D01*
X486995Y513000D01*
X485005D01*
X483168Y512239D01*
X481761Y510832D01*
X481393Y509942D01*
X465420D01*
Y515300D01*
X470242D01*
X470986Y515448D01*
X471616Y515869D01*
X479923Y524177D01*
X480345Y524807D01*
X480492Y525550D01*
Y526830D01*
X484420D01*
Y543170D01*
X480492D01*
Y555975D01*
X480821Y556305D01*
X482115Y555558D01*
X484345Y554960D01*
X486655D01*
X488885Y555558D01*
X490885Y556712D01*
X492518Y558345D01*
X493672Y560345D01*
X494270Y562575D01*
Y564885D01*
X493672Y567115D01*
X492518Y569115D01*
X490885Y570748D01*
X488885Y571902D01*
X486655Y572500D01*
D02*
G37*
G36*
X468870Y563095D02*
X460735D01*
Y554960D01*
X461255D01*
X463485Y555558D01*
X465485Y556712D01*
X467118Y558345D01*
X468272Y560345D01*
X468870Y562575D01*
Y563095D01*
D02*
G37*
G36*
X459465D02*
X451330D01*
Y562575D01*
X451928Y560345D01*
X453082Y558345D01*
X454715Y556712D01*
X456715Y555558D01*
X458945Y554960D01*
X459465D01*
Y563095D01*
D02*
G37*
G36*
X334255Y572500D02*
X331945D01*
X329715Y571902D01*
X327715Y570748D01*
X326082Y569115D01*
X324928Y567115D01*
X324330Y564885D01*
Y562575D01*
X324928Y560345D01*
X326082Y558345D01*
X327715Y556712D01*
X329715Y555558D01*
X331945Y554960D01*
X334255D01*
X336485Y555558D01*
X338485Y556712D01*
X340118Y558345D01*
X341272Y560345D01*
X341870Y562575D01*
Y564885D01*
X341272Y567115D01*
X340118Y569115D01*
X338485Y570748D01*
X336485Y571902D01*
X334255Y572500D01*
D02*
G37*
G36*
X308855D02*
X306545D01*
X304315Y571902D01*
X302315Y570748D01*
X300682Y569115D01*
X299528Y567115D01*
X298930Y564885D01*
Y562575D01*
X299528Y560345D01*
X300682Y558345D01*
X302315Y556712D01*
X304315Y555558D01*
X306545Y554960D01*
X308855D01*
X311085Y555558D01*
X313085Y556712D01*
X314718Y558345D01*
X315872Y560345D01*
X316470Y562575D01*
Y564885D01*
X315872Y567115D01*
X314718Y569115D01*
X313085Y570748D01*
X311085Y571902D01*
X308855Y572500D01*
D02*
G37*
G36*
X283455D02*
X281145D01*
X278915Y571902D01*
X276915Y570748D01*
X275282Y569115D01*
X274128Y567115D01*
X273530Y564885D01*
Y562575D01*
X274128Y560345D01*
X275282Y558345D01*
X276915Y556712D01*
X278915Y555558D01*
X281145Y554960D01*
X283455D01*
X285685Y555558D01*
X287685Y556712D01*
X289318Y558345D01*
X290472Y560345D01*
X291070Y562575D01*
Y564885D01*
X290472Y567115D01*
X289318Y569115D01*
X287685Y570748D01*
X285685Y571902D01*
X283455Y572500D01*
D02*
G37*
G36*
X258055D02*
X255745D01*
X253515Y571902D01*
X251515Y570748D01*
X249882Y569115D01*
X248728Y567115D01*
X248130Y564885D01*
Y562575D01*
X248728Y560345D01*
X249882Y558345D01*
X251515Y556712D01*
X253515Y555558D01*
X255745Y554960D01*
X258055D01*
X260285Y555558D01*
X262285Y556712D01*
X263918Y558345D01*
X265072Y560345D01*
X265670Y562575D01*
Y564885D01*
X265072Y567115D01*
X263918Y569115D01*
X262285Y570748D01*
X260285Y571902D01*
X258055Y572500D01*
D02*
G37*
G36*
X207255D02*
X204945D01*
X202715Y571902D01*
X200715Y570748D01*
X199082Y569115D01*
X197928Y567115D01*
X197330Y564885D01*
Y562575D01*
X197928Y560345D01*
X199082Y558345D01*
X200715Y556712D01*
X202715Y555558D01*
X204945Y554960D01*
X207255D01*
X209485Y555558D01*
X211485Y556712D01*
X213118Y558345D01*
X214272Y560345D01*
X214870Y562575D01*
Y564885D01*
X214272Y567115D01*
X213118Y569115D01*
X211485Y570748D01*
X209485Y571902D01*
X207255Y572500D01*
D02*
G37*
G36*
X138670Y563095D02*
X130535D01*
Y554960D01*
X131055D01*
X133285Y555558D01*
X135285Y556712D01*
X136918Y558345D01*
X138072Y560345D01*
X138670Y562575D01*
Y563095D01*
D02*
G37*
G36*
X129265D02*
X121130D01*
Y562575D01*
X121728Y560345D01*
X122882Y558345D01*
X124515Y556712D01*
X126515Y555558D01*
X128745Y554960D01*
X129265D01*
Y563095D01*
D02*
G37*
G36*
X465320Y543170D02*
X460085D01*
Y535635D01*
X465320D01*
Y543170D01*
D02*
G37*
G36*
X458815D02*
X453580D01*
Y535635D01*
X458815D01*
Y543170D01*
D02*
G37*
G36*
X135420Y542170D02*
X130185D01*
Y534635D01*
X135420D01*
Y542170D01*
D02*
G37*
G36*
X128915D02*
X123680D01*
Y534635D01*
X128915D01*
Y542170D01*
D02*
G37*
G36*
X465320Y534365D02*
X460085D01*
Y526830D01*
X465320D01*
Y534365D01*
D02*
G37*
G36*
X458815D02*
X453580D01*
Y526830D01*
X458815D01*
Y534365D01*
D02*
G37*
G36*
X135420Y533365D02*
X130185D01*
Y525830D01*
X135420D01*
Y533365D01*
D02*
G37*
G36*
X128915D02*
X123680D01*
Y525830D01*
X128915D01*
Y533365D01*
D02*
G37*
G36*
X105655Y572500D02*
X103345D01*
X101115Y571902D01*
X99115Y570748D01*
X97482Y569115D01*
X96328Y567115D01*
X95730Y564885D01*
Y562575D01*
X96328Y560345D01*
X97482Y558345D01*
X99115Y556712D01*
X101115Y555558D01*
X103345Y554960D01*
X105655D01*
X107885Y555558D01*
X108508Y555917D01*
Y542170D01*
X104580D01*
Y525830D01*
X116320D01*
Y542170D01*
X112392D01*
Y557431D01*
X112245Y558175D01*
X111823Y558805D01*
X111823Y558805D01*
X111798Y558830D01*
X112672Y560345D01*
X113270Y562575D01*
Y564885D01*
X112672Y567115D01*
X111518Y569115D01*
X109885Y570748D01*
X107885Y571902D01*
X105655Y572500D01*
D02*
G37*
G36*
X206270Y535540D02*
X183730D01*
Y520000D01*
X206270D01*
Y526058D01*
X211393D01*
X211761Y525168D01*
X213168Y523761D01*
X215005Y523000D01*
X216995D01*
X218832Y523761D01*
X220239Y525168D01*
X221000Y527005D01*
Y528995D01*
X220239Y530832D01*
X218832Y532239D01*
X216995Y533000D01*
X215005D01*
X213168Y532239D01*
X211761Y530832D01*
X211393Y529942D01*
X206270D01*
Y535540D01*
D02*
G37*
G36*
X446320Y521170D02*
X441085D01*
Y513635D01*
X446320D01*
Y521170D01*
D02*
G37*
G36*
X439815D02*
X434580D01*
Y513635D01*
X439815D01*
Y521170D01*
D02*
G37*
G36*
X51484Y521270D02*
X50635D01*
Y510635D01*
X61270D01*
Y511484D01*
X60502Y514350D01*
X59018Y516920D01*
X56920Y519018D01*
X54350Y520502D01*
X51484Y521270D01*
D02*
G37*
G36*
X49365D02*
X48516D01*
X45650Y520502D01*
X43080Y519018D01*
X40982Y516920D01*
X39498Y514350D01*
X38730Y511484D01*
Y510635D01*
X49365D01*
Y521270D01*
D02*
G37*
G36*
X288885Y507585D02*
X287983D01*
X287287Y507447D01*
X286697Y507053D01*
X286304Y506463D01*
X286270Y506295D01*
X286237Y506463D01*
X285843Y507053D01*
X285253Y507447D01*
X284557Y507585D01*
X281483D01*
X280787Y507447D01*
X280197Y507053D01*
X279804Y506463D01*
X279665Y505768D01*
Y491092D01*
X279804Y490397D01*
X280197Y489807D01*
X280787Y489413D01*
X281483Y489275D01*
X284557D01*
X285253Y489413D01*
X285843Y489807D01*
X286237Y490397D01*
X286270Y490565D01*
X286304Y490397D01*
X286697Y489807D01*
X287287Y489413D01*
X287983Y489275D01*
X288885D01*
Y498430D01*
Y507585D01*
D02*
G37*
G36*
X206270Y512540D02*
X195635D01*
Y505405D01*
X206270D01*
Y512540D01*
D02*
G37*
G36*
X194365D02*
X183730D01*
Y505405D01*
X194365D01*
Y512540D01*
D02*
G37*
G36*
X156455Y572500D02*
X154145D01*
X151915Y571902D01*
X149915Y570748D01*
X148282Y569115D01*
X147128Y567115D01*
X146530Y564885D01*
Y562575D01*
X147128Y560345D01*
X148282Y558345D01*
X149915Y556712D01*
X151915Y555558D01*
X153358Y555171D01*
Y527540D01*
X143730D01*
Y505000D01*
X166270D01*
Y527540D01*
X157242D01*
Y555171D01*
X158685Y555558D01*
X160685Y556712D01*
X162318Y558345D01*
X163472Y560345D01*
X164070Y562575D01*
Y564885D01*
X163472Y567115D01*
X162318Y569115D01*
X160685Y570748D01*
X158685Y571902D01*
X156455Y572500D01*
D02*
G37*
G36*
X254320Y511170D02*
X242580D01*
Y504942D01*
X238608D01*
X238239Y505832D01*
X236832Y507239D01*
X234995Y508000D01*
X233006D01*
X231168Y507239D01*
X229761Y505832D01*
X229000Y503994D01*
Y502005D01*
X229761Y500168D01*
X231168Y498761D01*
X233006Y498000D01*
X234995D01*
X236832Y498761D01*
X238239Y500168D01*
X238608Y501058D01*
X242580D01*
Y494830D01*
X254320D01*
Y511170D01*
D02*
G37*
G36*
X446320Y512365D02*
X441085D01*
Y504830D01*
X446320D01*
Y512365D01*
D02*
G37*
G36*
X439815D02*
X434580D01*
Y504830D01*
X439815D01*
Y512365D01*
D02*
G37*
G36*
X273420Y511170D02*
X268185D01*
Y503635D01*
X273420D01*
Y511170D01*
D02*
G37*
G36*
X266915D02*
X261680D01*
Y503635D01*
X266915D01*
Y511170D01*
D02*
G37*
G36*
X61270Y509365D02*
X50635D01*
Y498730D01*
X51484D01*
X54350Y499498D01*
X56920Y500982D01*
X59018Y503080D01*
X60502Y505650D01*
X61270Y508516D01*
Y509365D01*
D02*
G37*
G36*
X49365D02*
X38730D01*
Y508516D01*
X39498Y505650D01*
X40982Y503080D01*
X43080Y500982D01*
X45650Y499498D01*
X48516Y498730D01*
X49365D01*
Y509365D01*
D02*
G37*
G36*
X206270Y504135D02*
X195635D01*
Y497000D01*
X206270D01*
Y504135D01*
D02*
G37*
G36*
X194365D02*
X183730D01*
Y497000D01*
X194365D01*
Y504135D01*
D02*
G37*
G36*
X445715Y502366D02*
X440635D01*
Y495635D01*
X445715D01*
Y502366D01*
D02*
G37*
G36*
X439365D02*
X434285D01*
Y495635D01*
X439365D01*
Y502366D01*
D02*
G37*
G36*
X273420Y502365D02*
X268185D01*
Y494830D01*
X273420D01*
Y502365D01*
D02*
G37*
G36*
X266915D02*
X261680D01*
Y494830D01*
X266915D01*
Y502365D01*
D02*
G37*
G36*
X832484Y513670D02*
X829516D01*
X826650Y512902D01*
X824080Y511418D01*
X821982Y509320D01*
X820498Y506750D01*
X819730Y503884D01*
Y500916D01*
X820498Y498050D01*
X821982Y495480D01*
X824080Y493382D01*
X826650Y491898D01*
X829516Y491130D01*
X832484D01*
X835350Y491898D01*
X837920Y493382D01*
X840018Y495480D01*
X841502Y498050D01*
X842270Y500916D01*
Y503884D01*
X841502Y506750D01*
X840018Y509320D01*
X837920Y511418D01*
X835350Y512902D01*
X832484Y513670D01*
D02*
G37*
G36*
X445715Y494365D02*
X440635D01*
Y487634D01*
X445715D01*
Y494365D01*
D02*
G37*
G36*
X439365D02*
X434285D01*
Y487634D01*
X439365D01*
Y494365D01*
D02*
G37*
G36*
X832484Y462870D02*
X829516D01*
X826650Y462102D01*
X824080Y460618D01*
X821982Y458520D01*
X820498Y455950D01*
X819730Y453084D01*
Y450116D01*
X820498Y447250D01*
X821982Y444680D01*
X824080Y442582D01*
X826650Y441098D01*
X829516Y440330D01*
X832484D01*
X835350Y441098D01*
X837920Y442582D01*
X840018Y444680D01*
X841502Y447250D01*
X842270Y450116D01*
Y453084D01*
X841502Y455950D01*
X840018Y458520D01*
X837920Y460618D01*
X835350Y462102D01*
X832484Y462870D01*
D02*
G37*
G36*
Y361270D02*
X831635D01*
Y350635D01*
X842270D01*
Y351484D01*
X841502Y354350D01*
X840018Y356920D01*
X837920Y359018D01*
X835350Y360502D01*
X832484Y361270D01*
D02*
G37*
G36*
X830365D02*
X829516D01*
X826650Y360502D01*
X824080Y359018D01*
X821982Y356920D01*
X820498Y354350D01*
X819730Y351484D01*
Y350635D01*
X830365D01*
Y361270D01*
D02*
G37*
G36*
X786170Y355420D02*
X778635D01*
Y350185D01*
X786170D01*
Y355420D01*
D02*
G37*
G36*
X777365D02*
X769830D01*
Y350185D01*
X777365D01*
Y355420D01*
D02*
G37*
G36*
X786170Y348915D02*
X778635D01*
Y343680D01*
X786170D01*
Y348915D01*
D02*
G37*
G36*
X777365D02*
X769830D01*
Y343680D01*
X777365D01*
Y348915D01*
D02*
G37*
G36*
X842270Y349365D02*
X831635D01*
Y338730D01*
X832484D01*
X835350Y339498D01*
X837920Y340982D01*
X840018Y343080D01*
X841502Y345650D01*
X842270Y348516D01*
Y349365D01*
D02*
G37*
G36*
X830365D02*
X819730D01*
Y348516D01*
X820498Y345650D01*
X821982Y343080D01*
X824080Y340982D01*
X826650Y339498D01*
X829516Y338730D01*
X830365D01*
Y349365D01*
D02*
G37*
G36*
X343058Y450185D02*
X339983D01*
X339287Y450047D01*
X338697Y449653D01*
X338303Y449063D01*
X338270Y448895D01*
X338237Y449063D01*
X337843Y449653D01*
X337253Y450047D01*
X336558Y450185D01*
X333483D01*
X332787Y450047D01*
X332197Y449653D01*
X331804Y449063D01*
X331770Y448895D01*
X331737Y449063D01*
X331343Y449653D01*
X330753Y450047D01*
X330057Y450185D01*
X326983D01*
X326287Y450047D01*
X325697Y449653D01*
X325303Y449063D01*
X325270Y448895D01*
X325237Y449063D01*
X324843Y449653D01*
X324253Y450047D01*
X323558Y450185D01*
X320482D01*
X319787Y450047D01*
X319197Y449653D01*
X318804Y449063D01*
X318770Y448895D01*
X318737Y449063D01*
X318343Y449653D01*
X317753Y450047D01*
X317057Y450185D01*
X313983D01*
X313287Y450047D01*
X312697Y449653D01*
X312304Y449063D01*
X312270Y448895D01*
X312237Y449063D01*
X311843Y449653D01*
X311253Y450047D01*
X310557Y450185D01*
X307482D01*
X306787Y450047D01*
X306197Y449653D01*
X305804Y449063D01*
X305770Y448895D01*
X305737Y449063D01*
X305343Y449653D01*
X304753Y450047D01*
X304058Y450185D01*
X300983D01*
X300287Y450047D01*
X299697Y449653D01*
X299303Y449063D01*
X299270Y448895D01*
X299237Y449063D01*
X298843Y449653D01*
X298253Y450047D01*
X297558Y450185D01*
X294482D01*
X293787Y450047D01*
X293197Y449653D01*
X292803Y449063D01*
X292770Y448895D01*
X292737Y449063D01*
X292343Y449653D01*
X291753Y450047D01*
X291057Y450185D01*
X290155D01*
Y441030D01*
Y431875D01*
X291057D01*
X291753Y432013D01*
X292343Y432407D01*
X292737Y432997D01*
X292770Y433165D01*
X292803Y432997D01*
X293197Y432407D01*
X293787Y432013D01*
X294078Y431956D01*
Y431513D01*
X294226Y430770D01*
X294647Y430140D01*
X294828Y429959D01*
Y370169D01*
X294650Y370050D01*
X294270Y369482D01*
X293890Y370050D01*
X293239Y370486D01*
X292470Y370639D01*
X291070D01*
X290301Y370486D01*
X289650Y370050D01*
X289270Y369482D01*
X288890Y370050D01*
X288239Y370486D01*
X287470Y370639D01*
X287405D01*
Y361530D01*
Y352421D01*
X287470D01*
X288239Y352574D01*
X288890Y353010D01*
X289270Y353578D01*
X289443Y353320D01*
Y337767D01*
X288168Y337239D01*
X286761Y335832D01*
X286000Y333995D01*
Y332005D01*
X286761Y330168D01*
X288168Y328761D01*
X289058Y328393D01*
Y321805D01*
X281425Y314172D01*
X281109D01*
X280990Y314350D01*
X280422Y314730D01*
X280990Y315110D01*
X281426Y315761D01*
X281579Y316530D01*
Y317930D01*
X281426Y318699D01*
X280990Y319350D01*
X280422Y319730D01*
X280990Y320110D01*
X281426Y320761D01*
X281579Y321530D01*
Y322930D01*
X281426Y323699D01*
X280990Y324350D01*
X280422Y324730D01*
X280990Y325110D01*
X281426Y325761D01*
X281579Y326530D01*
Y327930D01*
X281426Y328699D01*
X280990Y329350D01*
X280422Y329730D01*
X280990Y330110D01*
X281426Y330761D01*
X281579Y331530D01*
Y332930D01*
X281426Y333699D01*
X280990Y334350D01*
X280422Y334730D01*
X280990Y335110D01*
X281426Y335761D01*
X281579Y336530D01*
Y337930D01*
X281426Y338699D01*
X280990Y339350D01*
X280422Y339730D01*
X280990Y340110D01*
X281426Y340761D01*
X281579Y341530D01*
Y342930D01*
X281426Y343699D01*
X280990Y344350D01*
X280422Y344730D01*
X280990Y345110D01*
X281426Y345761D01*
X281579Y346530D01*
Y346595D01*
X272470D01*
X263361D01*
Y346530D01*
X263514Y345761D01*
X263950Y345110D01*
X264518Y344730D01*
X263950Y344350D01*
X263514Y343699D01*
X263361Y342930D01*
Y341530D01*
X263514Y340761D01*
X263950Y340110D01*
X264518Y339730D01*
X263950Y339350D01*
X263514Y338699D01*
X263361Y337930D01*
Y336530D01*
X263514Y335761D01*
X263950Y335110D01*
X264518Y334730D01*
X263950Y334350D01*
X263514Y333699D01*
X263361Y332930D01*
Y331530D01*
X263514Y330761D01*
X263950Y330110D01*
X264518Y329730D01*
X263950Y329350D01*
X263831Y329172D01*
X263334D01*
X240942Y351564D01*
Y394000D01*
X240795Y394743D01*
X240373Y395373D01*
X240373Y395373D01*
X236373Y399373D01*
X235743Y399795D01*
X235000Y399942D01*
X199220D01*
X198477Y399795D01*
X197847Y399373D01*
X194627Y396153D01*
X194205Y395523D01*
X194058Y394780D01*
Y394170D01*
X190130D01*
Y377830D01*
X197058D01*
Y372770D01*
X194730D01*
Y363230D01*
X203270D01*
Y372770D01*
X200942D01*
Y377830D01*
X201870D01*
Y394170D01*
X198137D01*
X200025Y396058D01*
X234195D01*
X237058Y393195D01*
Y350759D01*
X237206Y350016D01*
X237627Y349386D01*
X261156Y325857D01*
X261156Y325857D01*
X261786Y325436D01*
X262529Y325288D01*
X263831D01*
X263950Y325110D01*
X264518Y324730D01*
X263950Y324350D01*
X263831Y324172D01*
X257575D01*
X245373Y336373D01*
X244743Y336794D01*
X244000Y336942D01*
X221420D01*
Y343170D01*
X213942D01*
Y347230D01*
X215270D01*
Y356770D01*
X206730D01*
Y347230D01*
X210058D01*
Y343170D01*
X209680D01*
Y326830D01*
X221420D01*
Y333058D01*
X243195D01*
X255396Y320857D01*
X256027Y320436D01*
X256770Y320288D01*
X263831D01*
X263950Y320110D01*
X264518Y319730D01*
X263950Y319350D01*
X263831Y319172D01*
X249575D01*
X248631Y320116D01*
X249000Y321005D01*
Y322995D01*
X248239Y324832D01*
X246832Y326239D01*
X244995Y327000D01*
X243006D01*
X241168Y326239D01*
X239761Y324832D01*
X239000Y322995D01*
Y321005D01*
X239761Y319168D01*
X241168Y317761D01*
X243006Y317000D01*
X244995D01*
X245884Y317369D01*
X247397Y315857D01*
X248027Y315436D01*
X248770Y315288D01*
X263831D01*
X263950Y315110D01*
X264518Y314730D01*
X263950Y314350D01*
X263514Y313699D01*
X263361Y312930D01*
Y311530D01*
X263514Y310761D01*
X263950Y310110D01*
X264518Y309730D01*
X263950Y309350D01*
X263514Y308699D01*
X263361Y307930D01*
Y307865D01*
X272470D01*
X281579D01*
Y307930D01*
X281426Y308699D01*
X280990Y309350D01*
X280422Y309730D01*
X280990Y310110D01*
X281109Y310288D01*
X282230D01*
X282973Y310436D01*
X283603Y310857D01*
X292373Y319627D01*
X292374Y319627D01*
X292794Y320257D01*
X292942Y321000D01*
X292942Y321000D01*
Y328393D01*
X293832Y328761D01*
X295239Y330168D01*
X296000Y332005D01*
Y333995D01*
X295239Y335832D01*
X293832Y337239D01*
X293327Y337448D01*
Y352634D01*
X293890Y353010D01*
X294270Y353578D01*
X294650Y353010D01*
X295301Y352574D01*
X296070Y352421D01*
X297470D01*
X298239Y352574D01*
X298890Y353010D01*
X299270Y353578D01*
X299650Y353010D01*
X300301Y352574D01*
X301070Y352421D01*
X302470D01*
X303239Y352574D01*
X303890Y353010D01*
X304270Y353578D01*
X304650Y353010D01*
X304943Y352814D01*
Y348560D01*
X304168Y348239D01*
X302761Y346832D01*
X302000Y344995D01*
Y343005D01*
X302761Y341168D01*
X304168Y339761D01*
X306005Y339000D01*
X307995D01*
X309832Y339761D01*
X311239Y341168D01*
X312000Y343005D01*
Y344995D01*
X311239Y346832D01*
X309832Y348239D01*
X308827Y348655D01*
Y352968D01*
X308890Y353010D01*
X309270Y353578D01*
X309650Y353010D01*
X310301Y352574D01*
X311070Y352421D01*
X312470D01*
X313239Y352574D01*
X313890Y353010D01*
X314270Y353578D01*
X314650Y353010D01*
X315301Y352574D01*
X316070Y352421D01*
X317470D01*
X318239Y352574D01*
X318890Y353010D01*
X319270Y353578D01*
X319650Y353010D01*
X320301Y352574D01*
X321070Y352421D01*
X322470D01*
X323239Y352574D01*
X323890Y353010D01*
X324270Y353578D01*
X324650Y353010D01*
X325301Y352574D01*
X326070Y352421D01*
X327470D01*
X328239Y352574D01*
X328890Y353010D01*
X329270Y353578D01*
X329650Y353010D01*
X330301Y352574D01*
X331070Y352421D01*
X332470D01*
X333239Y352574D01*
X333890Y353010D01*
X334270Y353578D01*
X334650Y353010D01*
X335301Y352574D01*
X336070Y352421D01*
X337470D01*
X338239Y352574D01*
X338890Y353010D01*
X339270Y353578D01*
X339650Y353010D01*
X340301Y352574D01*
X341070Y352421D01*
X342470D01*
X343239Y352574D01*
X343890Y353010D01*
X344326Y353661D01*
X344479Y354430D01*
Y368630D01*
X344326Y369399D01*
X343890Y370050D01*
X343712Y370169D01*
Y371965D01*
X349373Y377626D01*
X349795Y378257D01*
X349942Y379000D01*
Y380393D01*
X350832Y380761D01*
X352239Y382168D01*
X353000Y384005D01*
Y385995D01*
X352239Y387832D01*
X350832Y389239D01*
X348995Y390000D01*
X347006D01*
X345168Y389239D01*
X343761Y387832D01*
X343000Y385995D01*
Y384005D01*
X343761Y382168D01*
X345168Y380761D01*
X346058Y380393D01*
Y379804D01*
X340397Y374143D01*
X339976Y373513D01*
X339828Y372770D01*
Y370169D01*
X339650Y370050D01*
X339270Y369482D01*
X338890Y370050D01*
X338239Y370486D01*
X337470Y370639D01*
X336070D01*
X335301Y370486D01*
X334650Y370050D01*
X334270Y369482D01*
X333890Y370050D01*
X333712Y370169D01*
Y423712D01*
X336394Y426393D01*
X336814Y427024D01*
X336962Y427767D01*
Y431956D01*
X337253Y432013D01*
X337843Y432407D01*
X338237Y432997D01*
X338270Y433165D01*
X338303Y432997D01*
X338697Y432407D01*
X339287Y432013D01*
X339983Y431875D01*
X343058D01*
X343753Y432013D01*
X344343Y432407D01*
X344737Y432997D01*
X344875Y433693D01*
Y439088D01*
X351580D01*
Y432830D01*
X363320D01*
Y449170D01*
X351580D01*
Y442972D01*
X344875D01*
Y448368D01*
X344737Y449063D01*
X344343Y449653D01*
X343753Y450047D01*
X343058Y450185D01*
D02*
G37*
G36*
X288885D02*
X287983D01*
X287287Y450047D01*
X286697Y449653D01*
X286304Y449063D01*
X286270Y448895D01*
X286237Y449063D01*
X285843Y449653D01*
X285253Y450047D01*
X284557Y450185D01*
X281483D01*
X280787Y450047D01*
X280197Y449653D01*
X279804Y449063D01*
X279665Y448368D01*
Y433693D01*
X279804Y432997D01*
X280197Y432407D01*
X280787Y432013D01*
X281483Y431875D01*
X284557D01*
X285253Y432013D01*
X285843Y432407D01*
X286237Y432997D01*
X286270Y433165D01*
X286304Y432997D01*
X286697Y432407D01*
X287287Y432013D01*
X287983Y431875D01*
X288885D01*
Y441030D01*
Y450185D01*
D02*
G37*
G36*
X382420Y449170D02*
X370680D01*
Y432830D01*
X382420D01*
Y439225D01*
X386154D01*
X386522Y438335D01*
X387929Y436929D01*
X389767Y436168D01*
X391756D01*
X393593Y436929D01*
X395000Y438335D01*
X395761Y440173D01*
Y442162D01*
X395000Y444000D01*
X393593Y445406D01*
X391756Y446168D01*
X389767D01*
X387929Y445406D01*
X386522Y444000D01*
X386154Y443110D01*
X382420D01*
Y449170D01*
D02*
G37*
G36*
X291420Y424170D02*
X286185D01*
Y416635D01*
X291420D01*
Y424170D01*
D02*
G37*
G36*
X284915D02*
X279680D01*
Y416635D01*
X284915D01*
Y424170D01*
D02*
G37*
G36*
X411635Y426368D02*
Y415855D01*
X418375D01*
Y417220D01*
X418208Y417623D01*
X418100Y418045D01*
X412100Y426045D01*
X411927Y426147D01*
X411825Y426320D01*
X411635Y426368D01*
D02*
G37*
G36*
X410365Y426368D02*
X410175Y426320D01*
X410073Y426147D01*
X409900Y426045D01*
X403900Y418045D01*
X403792Y417623D01*
X403625Y417220D01*
Y415855D01*
X410365D01*
Y426368D01*
D02*
G37*
G36*
X291420Y415365D02*
X286185D01*
Y407830D01*
X291420D01*
Y415365D01*
D02*
G37*
G36*
X284915D02*
X279680D01*
Y407830D01*
X284915D01*
Y415365D01*
D02*
G37*
G36*
X418375Y414585D02*
X411635D01*
Y403845D01*
X417000D01*
X417972Y404248D01*
X418375Y405220D01*
Y414585D01*
D02*
G37*
G36*
X410365D02*
X403625D01*
Y405220D01*
X404028Y404248D01*
X405000Y403845D01*
X410365D01*
Y414585D01*
D02*
G37*
G36*
X419170Y397420D02*
X411635D01*
Y392185D01*
X419170D01*
Y397420D01*
D02*
G37*
G36*
X410365D02*
X402830D01*
Y392185D01*
X410365D01*
Y397420D01*
D02*
G37*
G36*
X272320Y424170D02*
X260580D01*
Y410577D01*
X252003Y402000D01*
X251005D01*
X249168Y401239D01*
X247761Y399832D01*
X247000Y397995D01*
Y396005D01*
X247761Y394168D01*
X249168Y392761D01*
X250058Y392393D01*
Y385000D01*
X250206Y384257D01*
X250627Y383627D01*
X254566Y379688D01*
X255196Y379267D01*
X255830Y379140D01*
Y374680D01*
X272170D01*
Y386420D01*
X255830D01*
Y383917D01*
X253942Y385804D01*
Y392393D01*
X254832Y392761D01*
X256239Y394168D01*
X256607Y395058D01*
X260580D01*
Y388830D01*
X272320D01*
Y405170D01*
X260667D01*
X263327Y407830D01*
X272320D01*
Y424170D01*
D02*
G37*
G36*
X419170Y390915D02*
X411635D01*
Y385680D01*
X419170D01*
Y390915D01*
D02*
G37*
G36*
X410365D02*
X402830D01*
Y385680D01*
X410365D01*
Y390915D01*
D02*
G37*
G36*
X220970Y394170D02*
X209230D01*
Y377830D01*
X210058D01*
Y372770D01*
X206730D01*
Y363230D01*
X215270D01*
Y372770D01*
X213942D01*
Y377830D01*
X220970D01*
Y384058D01*
X223393D01*
X223761Y383168D01*
X225168Y381761D01*
X227005Y381000D01*
X228995D01*
X230832Y381761D01*
X232239Y383168D01*
X233000Y385005D01*
Y386995D01*
X232239Y388832D01*
X230832Y390239D01*
X228995Y391000D01*
X227005D01*
X225168Y390239D01*
X223761Y388832D01*
X223393Y387942D01*
X220970D01*
Y394170D01*
D02*
G37*
G36*
X291420Y405170D02*
X279680D01*
Y388830D01*
X284058D01*
Y386607D01*
X283168Y386239D01*
X281761Y384832D01*
X281000Y382995D01*
Y381005D01*
X281761Y379168D01*
X283168Y377761D01*
X285005Y377000D01*
X286995D01*
X288832Y377761D01*
X290239Y379168D01*
X291000Y381005D01*
Y382995D01*
X290239Y384832D01*
X288832Y386239D01*
X287942Y386607D01*
Y388830D01*
X291420D01*
Y405170D01*
D02*
G37*
G36*
X419170Y378320D02*
X402830D01*
Y374392D01*
X397450D01*
X396707Y374244D01*
X396077Y373823D01*
X390196Y367942D01*
X384420D01*
Y374170D01*
X372680D01*
Y357830D01*
X376058D01*
Y351426D01*
X375870Y351239D01*
X374173D01*
X372336Y350478D01*
X370929Y349071D01*
X370168Y347233D01*
Y345244D01*
X370536Y344354D01*
X370239Y344057D01*
X364786D01*
X364590Y344350D01*
X364022Y344730D01*
X364590Y345110D01*
X365026Y345761D01*
X365179Y346530D01*
Y346595D01*
X356070D01*
X346962D01*
Y346530D01*
X347114Y345761D01*
X347550Y345110D01*
X348118Y344730D01*
X347550Y344350D01*
X347114Y343699D01*
X346962Y342930D01*
Y341530D01*
X347114Y340761D01*
X347550Y340110D01*
X348118Y339730D01*
X347550Y339350D01*
X347354Y339057D01*
X342560D01*
X342239Y339832D01*
X340832Y341239D01*
X338995Y342000D01*
X337005D01*
X335168Y341239D01*
X333761Y339832D01*
X333000Y337994D01*
Y336005D01*
X333761Y334168D01*
X335168Y332761D01*
X337005Y332000D01*
X338995D01*
X340832Y332761D01*
X342239Y334168D01*
X342655Y335173D01*
X347508D01*
X347550Y335110D01*
X348118Y334730D01*
X347550Y334350D01*
X347114Y333699D01*
X346962Y332930D01*
Y331530D01*
X347114Y330761D01*
X347550Y330110D01*
X348118Y329730D01*
X347550Y329350D01*
X347114Y328699D01*
X346962Y327930D01*
Y326530D01*
X347114Y325761D01*
X347550Y325110D01*
X348118Y324730D01*
X347550Y324350D01*
X347354Y324057D01*
X342560D01*
X342239Y324832D01*
X340832Y326239D01*
X338995Y327000D01*
X337005D01*
X335168Y326239D01*
X333761Y324832D01*
X333000Y322995D01*
Y321005D01*
X333761Y319168D01*
X335168Y317761D01*
X337005Y317000D01*
X338995D01*
X340832Y317761D01*
X342239Y319168D01*
X342655Y320173D01*
X347508D01*
X347550Y320110D01*
X348118Y319730D01*
X347550Y319350D01*
X347114Y318699D01*
X346962Y317930D01*
Y316530D01*
X347114Y315761D01*
X347550Y315110D01*
X348118Y314730D01*
X347550Y314350D01*
X347114Y313699D01*
X346962Y312930D01*
Y311530D01*
X347114Y310761D01*
X347550Y310110D01*
X348118Y309730D01*
X347550Y309350D01*
X347114Y308699D01*
X346962Y307930D01*
Y306530D01*
X347114Y305761D01*
X347550Y305110D01*
X348118Y304730D01*
X347550Y304350D01*
X347114Y303699D01*
X346962Y302930D01*
Y301530D01*
X347114Y300761D01*
X347550Y300110D01*
X348118Y299730D01*
X347550Y299350D01*
X347114Y298699D01*
X346962Y297930D01*
Y296530D01*
X347114Y295761D01*
X347550Y295110D01*
X348118Y294730D01*
X347550Y294350D01*
X347114Y293699D01*
X346962Y292930D01*
Y291530D01*
X347114Y290761D01*
X347550Y290110D01*
X348201Y289674D01*
X348970Y289521D01*
X363170D01*
X363939Y289674D01*
X364590Y290110D01*
X365026Y290761D01*
X365179Y291530D01*
Y292930D01*
X365026Y293699D01*
X364590Y294350D01*
X364022Y294730D01*
X364590Y295110D01*
X365026Y295761D01*
X365179Y296530D01*
Y297930D01*
X365026Y298699D01*
X364590Y299350D01*
X364022Y299730D01*
X364590Y300110D01*
X365026Y300761D01*
X365179Y301530D01*
Y302930D01*
X365026Y303699D01*
X364590Y304350D01*
X364022Y304730D01*
X364590Y305110D01*
X365026Y305761D01*
X365179Y306530D01*
Y307930D01*
X365026Y308699D01*
X364590Y309350D01*
X364022Y309730D01*
X364590Y310110D01*
X365026Y310761D01*
X365179Y311530D01*
Y312930D01*
X365026Y313699D01*
X364590Y314350D01*
X364272Y314563D01*
X364690D01*
X384515Y294738D01*
X384515Y294738D01*
X385091Y294353D01*
Y291737D01*
X385247Y290954D01*
X385690Y290290D01*
X386354Y289846D01*
X387137Y289691D01*
X405363D01*
X406146Y289846D01*
X406810Y290290D01*
X407253Y290954D01*
X407409Y291737D01*
Y296162D01*
X407253Y296946D01*
X406810Y297610D01*
X406146Y298053D01*
X405363Y298209D01*
X387137D01*
X386637Y298110D01*
X366868Y317879D01*
X366238Y318300D01*
X365495Y318447D01*
X365076D01*
X365026Y318699D01*
X364590Y319350D01*
X364022Y319730D01*
X364590Y320110D01*
X365026Y320761D01*
X365179Y321530D01*
Y322930D01*
X365026Y323699D01*
X364590Y324350D01*
X364022Y324730D01*
X364590Y325110D01*
X364709Y325288D01*
X372965D01*
X380276Y317977D01*
X380277Y317977D01*
X380907Y317556D01*
X381650Y317408D01*
X385091D01*
Y317138D01*
X385247Y316354D01*
X385690Y315690D01*
X386354Y315247D01*
X387137Y315091D01*
X389857D01*
Y310909D01*
X387137D01*
X386354Y310753D01*
X385690Y310310D01*
X385247Y309646D01*
X385091Y308862D01*
Y304438D01*
X385247Y303654D01*
X385690Y302990D01*
X386354Y302547D01*
X387137Y302391D01*
X405363D01*
X406146Y302547D01*
X406810Y302990D01*
X407253Y303654D01*
X407409Y304438D01*
Y308862D01*
X407253Y309646D01*
X406810Y310310D01*
X406146Y310753D01*
X405363Y310909D01*
X402643D01*
Y315091D01*
X405363D01*
X406146Y315247D01*
X406810Y315690D01*
X407253Y316354D01*
X407409Y317138D01*
Y321562D01*
X407253Y322346D01*
X406810Y323010D01*
X406146Y323453D01*
X405363Y323609D01*
X387137D01*
X386354Y323453D01*
X385690Y323010D01*
X385247Y322346D01*
X385091Y321562D01*
Y321292D01*
X382454D01*
X375143Y328604D01*
X374513Y329025D01*
X373770Y329172D01*
X364709D01*
X364590Y329350D01*
X364022Y329730D01*
X364590Y330110D01*
X365026Y330761D01*
X365179Y331530D01*
Y332930D01*
X365026Y333699D01*
X364590Y334350D01*
X364022Y334730D01*
X364590Y335110D01*
X365026Y335761D01*
X365179Y336530D01*
Y337930D01*
X365026Y338699D01*
X364590Y339350D01*
X364022Y339730D01*
X364590Y340110D01*
X364632Y340173D01*
X371044D01*
X371787Y340321D01*
X372417Y340742D01*
X373283Y341607D01*
X374173Y341239D01*
X376162D01*
X378000Y342000D01*
X379407Y343406D01*
X380168Y345244D01*
Y347233D01*
X379407Y349071D01*
X379301Y349176D01*
X379374Y349248D01*
X379795Y349878D01*
X379942Y350622D01*
X379942Y350622D01*
Y357830D01*
X384420D01*
Y364058D01*
X391000D01*
X391743Y364206D01*
X392374Y364627D01*
X398255Y370508D01*
X402830D01*
Y366580D01*
X419170D01*
Y378320D01*
D02*
G37*
G36*
X365320Y374170D02*
X360085D01*
Y366635D01*
X365320D01*
Y374170D01*
D02*
G37*
G36*
X358815D02*
X353580D01*
Y366635D01*
X358815D01*
Y374170D01*
D02*
G37*
G36*
X286135Y370639D02*
X286070D01*
X285301Y370486D01*
X284650Y370050D01*
X284214Y369399D01*
X284062Y368630D01*
Y362165D01*
X286135D01*
Y370639D01*
D02*
G37*
G36*
X272170Y367320D02*
X264635D01*
Y362085D01*
X272170D01*
Y367320D01*
D02*
G37*
G36*
X263365D02*
X255830D01*
Y362085D01*
X263365D01*
Y367320D01*
D02*
G37*
G36*
X365320Y365365D02*
X360085D01*
Y357830D01*
X365320D01*
Y365365D01*
D02*
G37*
G36*
X358815D02*
X353580D01*
Y357830D01*
X358815D01*
Y365365D01*
D02*
G37*
G36*
X272170Y360815D02*
X264635D01*
Y355580D01*
X272170D01*
Y360815D01*
D02*
G37*
G36*
X263365D02*
X255830D01*
Y355580D01*
X263365D01*
Y360815D01*
D02*
G37*
G36*
X286135Y360895D02*
X284062D01*
Y354430D01*
X284214Y353661D01*
X284650Y353010D01*
X285301Y352574D01*
X286070Y352421D01*
X286135D01*
Y360895D01*
D02*
G37*
G36*
X451320Y359170D02*
X446085D01*
Y351635D01*
X451320D01*
Y359170D01*
D02*
G37*
G36*
X444815D02*
X439580D01*
Y351635D01*
X444815D01*
Y359170D01*
D02*
G37*
G36*
X363170Y349939D02*
X356705D01*
Y347865D01*
X365179D01*
Y347930D01*
X365026Y348699D01*
X364590Y349350D01*
X363939Y349786D01*
X363170Y349939D01*
D02*
G37*
G36*
X355435D02*
X348970D01*
X348201Y349786D01*
X347550Y349350D01*
X347114Y348699D01*
X346962Y347930D01*
Y347865D01*
X355435D01*
Y349939D01*
D02*
G37*
G36*
X279570D02*
X273105D01*
Y347865D01*
X281579D01*
Y347930D01*
X281426Y348699D01*
X280990Y349350D01*
X280339Y349786D01*
X279570Y349939D01*
D02*
G37*
G36*
X271835D02*
X265370D01*
X264601Y349786D01*
X263950Y349350D01*
X263514Y348699D01*
X263361Y347930D01*
Y347865D01*
X271835D01*
Y349939D01*
D02*
G37*
G36*
X470420Y359170D02*
X458680D01*
Y342830D01*
X470420D01*
Y349058D01*
X475393D01*
X475761Y348168D01*
X477168Y346761D01*
X479005Y346000D01*
X480995D01*
X482832Y346761D01*
X484239Y348168D01*
X485000Y350005D01*
Y351995D01*
X484239Y353832D01*
X482832Y355239D01*
X480995Y356000D01*
X479005D01*
X477168Y355239D01*
X475761Y353832D01*
X475393Y352942D01*
X470420D01*
Y359170D01*
D02*
G37*
G36*
X451320Y350365D02*
X446085D01*
Y342830D01*
X451320D01*
Y350365D01*
D02*
G37*
G36*
X444815D02*
X439580D01*
Y342830D01*
X444815D01*
Y350365D01*
D02*
G37*
G36*
X521995Y362000D02*
X520005D01*
X518168Y361239D01*
X516761Y359832D01*
X516000Y357995D01*
Y356005D01*
X516761Y354168D01*
X518168Y352761D01*
X519058Y352393D01*
Y349420D01*
X512830D01*
Y337680D01*
X529170D01*
Y349420D01*
X522942D01*
Y352393D01*
X523832Y352761D01*
X525239Y354168D01*
X526000Y356005D01*
Y357995D01*
X525239Y359832D01*
X523832Y361239D01*
X521995Y362000D01*
D02*
G37*
G36*
X203270Y356770D02*
X194730D01*
Y347230D01*
X197058D01*
Y343170D01*
X190580D01*
Y336942D01*
X187607D01*
X187239Y337832D01*
X185832Y339239D01*
X183995Y340000D01*
X182005D01*
X180168Y339239D01*
X178761Y337832D01*
X178000Y335995D01*
Y334005D01*
X178761Y332168D01*
X180168Y330761D01*
X182005Y330000D01*
X183995D01*
X185832Y330761D01*
X187239Y332168D01*
X187607Y333058D01*
X190580D01*
Y326830D01*
X202320D01*
Y343170D01*
X200942D01*
Y347230D01*
X203270D01*
Y356770D01*
D02*
G37*
G36*
X417880Y336885D02*
X415890D01*
X414053Y336124D01*
X412646Y334717D01*
X412278Y333827D01*
X407409D01*
Y334263D01*
X407253Y335046D01*
X406810Y335710D01*
X406146Y336153D01*
X405363Y336309D01*
X387137D01*
X386354Y336153D01*
X385690Y335710D01*
X385247Y335046D01*
X385091Y334263D01*
Y329837D01*
X385247Y329054D01*
X385690Y328390D01*
X386354Y327947D01*
X387137Y327791D01*
X405363D01*
X406146Y327947D01*
X406810Y328390D01*
X407253Y329054D01*
X407409Y329837D01*
Y329943D01*
X412278D01*
X412646Y329053D01*
X414053Y327646D01*
X415890Y326885D01*
X417880D01*
X419717Y327646D01*
X421124Y329053D01*
X421885Y330890D01*
Y332879D01*
X421124Y334717D01*
X419717Y336124D01*
X417880Y336885D01*
D02*
G37*
G36*
X454863Y336309D02*
X446385D01*
Y332685D01*
X456909D01*
Y334263D01*
X456754Y335046D01*
X456310Y335710D01*
X455646Y336153D01*
X454863Y336309D01*
D02*
G37*
G36*
X445115D02*
X436637D01*
X435854Y336153D01*
X435190Y335710D01*
X434747Y335046D01*
X434591Y334263D01*
Y332685D01*
X445115D01*
Y336309D01*
D02*
G37*
G36*
X456909Y331415D02*
X446385D01*
Y327791D01*
X454863D01*
X455646Y327947D01*
X456310Y328390D01*
X456754Y329054D01*
X456909Y329837D01*
Y331415D01*
D02*
G37*
G36*
X445115D02*
X434591D01*
Y329837D01*
X434747Y329054D01*
X435190Y328390D01*
X435854Y327947D01*
X436637Y327791D01*
X445115D01*
Y331415D01*
D02*
G37*
G36*
X238320Y313170D02*
X226580D01*
Y306942D01*
X223607D01*
X223239Y307832D01*
X221832Y309239D01*
X219995Y310000D01*
X218005D01*
X216168Y309239D01*
X214761Y307832D01*
X214000Y305995D01*
Y304005D01*
X214761Y302168D01*
X216168Y300761D01*
X218005Y300000D01*
X219995D01*
X221832Y300761D01*
X223239Y302168D01*
X223607Y303058D01*
X226580D01*
Y296830D01*
X238320D01*
Y313170D01*
D02*
G37*
G36*
X257420D02*
X252185D01*
Y305635D01*
X257420D01*
Y313170D01*
D02*
G37*
G36*
X250915D02*
X245680D01*
Y305635D01*
X250915D01*
Y313170D01*
D02*
G37*
G36*
X257420Y304365D02*
X252185D01*
Y296830D01*
X257420D01*
Y304365D01*
D02*
G37*
G36*
X250915D02*
X245680D01*
Y296830D01*
X250915D01*
Y304365D01*
D02*
G37*
G36*
X51484Y316270D02*
X48516D01*
X45650Y315502D01*
X43080Y314018D01*
X40982Y311920D01*
X39498Y309350D01*
X38730Y306484D01*
Y303516D01*
X39498Y300650D01*
X40982Y298080D01*
X43080Y295982D01*
X45650Y294498D01*
X48516Y293730D01*
X51484D01*
X54350Y294498D01*
X56920Y295982D01*
X59018Y298080D01*
X60502Y300650D01*
X61270Y303516D01*
Y306484D01*
X60502Y309350D01*
X59018Y311920D01*
X56920Y314018D01*
X54350Y315502D01*
X51484Y316270D01*
D02*
G37*
G36*
Y351270D02*
X48516D01*
X45650Y350502D01*
X43080Y349018D01*
X40982Y346920D01*
X39498Y344350D01*
X38730Y341484D01*
Y338516D01*
X39498Y335650D01*
X40982Y333080D01*
X43080Y330982D01*
X45650Y329498D01*
X48516Y328730D01*
X51484D01*
X54350Y329498D01*
X56509Y330744D01*
X96397Y290857D01*
X97027Y290436D01*
X97770Y290288D01*
X97770Y290288D01*
X263831D01*
X263950Y290110D01*
X264601Y289674D01*
X265370Y289521D01*
X279570D01*
X280339Y289674D01*
X280990Y290110D01*
X281426Y290761D01*
X281579Y291530D01*
Y292930D01*
X281426Y293699D01*
X280990Y294350D01*
X280422Y294730D01*
X280990Y295110D01*
X281426Y295761D01*
X281579Y296530D01*
Y297930D01*
X281426Y298699D01*
X280990Y299350D01*
X280422Y299730D01*
X280990Y300110D01*
X281426Y300761D01*
X281579Y301530D01*
Y302930D01*
X281426Y303699D01*
X280990Y304350D01*
X280422Y304730D01*
X280990Y305110D01*
X281426Y305761D01*
X281579Y306530D01*
Y306595D01*
X272470D01*
X263361D01*
Y306530D01*
X263514Y305761D01*
X263950Y305110D01*
X264518Y304730D01*
X263950Y304350D01*
X263514Y303699D01*
X263361Y302930D01*
Y301530D01*
X263514Y300761D01*
X263950Y300110D01*
X264518Y299730D01*
X263950Y299350D01*
X263514Y298699D01*
X263361Y297930D01*
Y296530D01*
X263514Y295761D01*
X263950Y295110D01*
X264518Y294730D01*
X263950Y294350D01*
X263831Y294172D01*
X98575D01*
X59256Y333491D01*
X60502Y335650D01*
X61270Y338516D01*
Y341484D01*
X60502Y344350D01*
X59018Y346920D01*
X56920Y349018D01*
X54350Y350502D01*
X51484Y351270D01*
D02*
G37*
G36*
X529170Y291320D02*
X521635D01*
Y286085D01*
X529170D01*
Y291320D01*
D02*
G37*
G36*
X520365D02*
X512830D01*
Y286085D01*
X520365D01*
Y291320D01*
D02*
G37*
G36*
X529170Y284815D02*
X521635D01*
Y279580D01*
X529170D01*
Y284815D01*
D02*
G37*
G36*
X520365D02*
X512830D01*
Y279580D01*
X520365D01*
Y284815D01*
D02*
G37*
G36*
X342470Y287039D02*
X342405D01*
Y278565D01*
X344479D01*
Y285030D01*
X344326Y285799D01*
X343890Y286450D01*
X343239Y286886D01*
X342470Y287039D01*
D02*
G37*
G36*
X454863Y298209D02*
X436637D01*
X435854Y298053D01*
X435190Y297610D01*
X434747Y296946D01*
X434591Y296162D01*
Y291737D01*
X434747Y290954D01*
X435190Y290290D01*
X435854Y289846D01*
X436637Y289691D01*
X444058D01*
Y283607D01*
X443168Y283239D01*
X441761Y281832D01*
X441000Y279995D01*
Y278005D01*
X441761Y276168D01*
X443168Y274761D01*
X445005Y274000D01*
X446995D01*
X448832Y274761D01*
X450239Y276168D01*
X451000Y278005D01*
Y279995D01*
X450239Y281832D01*
X448832Y283239D01*
X447942Y283607D01*
Y289691D01*
X454863D01*
X455646Y289846D01*
X456310Y290290D01*
X456754Y290954D01*
X456909Y291737D01*
Y296162D01*
X456754Y296946D01*
X456310Y297610D01*
X455646Y298053D01*
X454863Y298209D01*
D02*
G37*
G36*
X344479Y277295D02*
X342405D01*
Y268822D01*
X342470D01*
X343239Y268974D01*
X343890Y269410D01*
X344326Y270061D01*
X344479Y270830D01*
Y277295D01*
D02*
G37*
G36*
X357170Y264420D02*
X349635D01*
Y259185D01*
X357170D01*
Y264420D01*
D02*
G37*
G36*
X348365D02*
X340830D01*
Y259185D01*
X348365D01*
Y264420D01*
D02*
G37*
G36*
X357170Y257915D02*
X349635D01*
Y252680D01*
X357170D01*
Y257915D01*
D02*
G37*
G36*
X348365D02*
X340830D01*
Y252680D01*
X348365D01*
Y257915D01*
D02*
G37*
G36*
X151420Y204170D02*
X139680D01*
Y187830D01*
X151420D01*
Y194058D01*
X154393D01*
X154761Y193168D01*
X156168Y191761D01*
X158005Y191000D01*
X159994D01*
X161832Y191761D01*
X163239Y193168D01*
X164000Y195005D01*
Y196995D01*
X163239Y198832D01*
X161832Y200239D01*
X159994Y201000D01*
X158005D01*
X156168Y200239D01*
X154761Y198832D01*
X154393Y197942D01*
X151420D01*
Y204170D01*
D02*
G37*
G36*
X550420Y202170D02*
X538680D01*
Y185830D01*
X550420D01*
Y192058D01*
X554393D01*
X554761Y191168D01*
X556168Y189761D01*
X558005Y189000D01*
X559995D01*
X561832Y189761D01*
X563239Y191168D01*
X564000Y193005D01*
Y194995D01*
X563239Y196832D01*
X561832Y198239D01*
X559995Y199000D01*
X558005D01*
X556168Y198239D01*
X554761Y196832D01*
X554393Y195942D01*
X550420D01*
Y202170D01*
D02*
G37*
G36*
X349420D02*
X337680D01*
Y185830D01*
X349420D01*
Y192058D01*
X353392D01*
X353761Y191168D01*
X355168Y189761D01*
X357005Y189000D01*
X358994D01*
X360832Y189761D01*
X362239Y191168D01*
X363000Y193005D01*
Y194995D01*
X362239Y196832D01*
X360832Y198239D01*
X358994Y199000D01*
X357005D01*
X355168Y198239D01*
X353761Y196832D01*
X353392Y195942D01*
X349420D01*
Y202170D01*
D02*
G37*
G36*
X663384Y136670D02*
X662535D01*
Y126035D01*
X673170D01*
Y126884D01*
X672402Y129750D01*
X670918Y132320D01*
X668820Y134418D01*
X666250Y135902D01*
X663384Y136670D01*
D02*
G37*
G36*
X661265D02*
X660416D01*
X657550Y135902D01*
X654980Y134418D01*
X652882Y132320D01*
X651398Y129750D01*
X650630Y126884D01*
Y126035D01*
X661265D01*
Y136670D01*
D02*
G37*
G36*
X463384D02*
X462535D01*
Y126035D01*
X473170D01*
Y126884D01*
X472402Y129750D01*
X470918Y132320D01*
X468820Y134418D01*
X466250Y135902D01*
X463384Y136670D01*
D02*
G37*
G36*
X461265D02*
X460416D01*
X457550Y135902D01*
X454980Y134418D01*
X452882Y132320D01*
X451398Y129750D01*
X450630Y126884D01*
Y126035D01*
X461265D01*
Y136670D01*
D02*
G37*
G36*
X263384D02*
X262535D01*
Y126035D01*
X273170D01*
Y126884D01*
X272402Y129750D01*
X270918Y132320D01*
X268820Y134418D01*
X266250Y135902D01*
X263384Y136670D01*
D02*
G37*
G36*
X261265D02*
X260416D01*
X257550Y135902D01*
X254980Y134418D01*
X252882Y132320D01*
X251398Y129750D01*
X250630Y126884D01*
Y126035D01*
X261265D01*
Y136670D01*
D02*
G37*
G36*
X63384D02*
X62535D01*
Y126035D01*
X73170D01*
Y126884D01*
X72402Y129750D01*
X70918Y132320D01*
X68820Y134418D01*
X66250Y135902D01*
X63384Y136670D01*
D02*
G37*
G36*
X61265D02*
X60416D01*
X57550Y135902D01*
X54980Y134418D01*
X52882Y132320D01*
X51398Y129750D01*
X50630Y126884D01*
Y126035D01*
X61265D01*
Y136670D01*
D02*
G37*
G36*
X673170Y124765D02*
X662535D01*
Y114130D01*
X663384D01*
X666250Y114898D01*
X668820Y116382D01*
X670918Y118480D01*
X672402Y121050D01*
X673170Y123916D01*
Y124765D01*
D02*
G37*
G36*
X661265D02*
X650630D01*
Y123916D01*
X651398Y121050D01*
X652882Y118480D01*
X654980Y116382D01*
X657550Y114898D01*
X660416Y114130D01*
X661265D01*
Y124765D01*
D02*
G37*
G36*
X473170D02*
X462535D01*
Y114130D01*
X463384D01*
X466250Y114898D01*
X468820Y116382D01*
X470918Y118480D01*
X472402Y121050D01*
X473170Y123916D01*
Y124765D01*
D02*
G37*
G36*
X461265D02*
X450630D01*
Y123916D01*
X451398Y121050D01*
X452882Y118480D01*
X454980Y116382D01*
X457550Y114898D01*
X460416Y114130D01*
X461265D01*
Y124765D01*
D02*
G37*
G36*
X273170D02*
X262535D01*
Y114130D01*
X263384D01*
X266250Y114898D01*
X268820Y116382D01*
X270918Y118480D01*
X272402Y121050D01*
X273170Y123916D01*
Y124765D01*
D02*
G37*
G36*
X261265D02*
X250630D01*
Y123916D01*
X251398Y121050D01*
X252882Y118480D01*
X254980Y116382D01*
X257550Y114898D01*
X260416Y114130D01*
X261265D01*
Y124765D01*
D02*
G37*
G36*
X73170D02*
X62535D01*
Y114130D01*
X63384D01*
X66250Y114898D01*
X68820Y116382D01*
X70918Y118480D01*
X72402Y121050D01*
X73170Y123916D01*
Y124765D01*
D02*
G37*
G36*
X61265D02*
X50630D01*
Y123916D01*
X51398Y121050D01*
X52882Y118480D01*
X54980Y116382D01*
X57550Y114898D01*
X60416Y114130D01*
X61265D01*
Y124765D01*
D02*
G37*
%LPD*%
G36*
X331804Y432997D02*
X332197Y432407D01*
X332787Y432013D01*
X333078Y431956D01*
Y428571D01*
X330397Y425890D01*
X329976Y425260D01*
X329828Y424517D01*
Y370169D01*
X329650Y370050D01*
X329270Y369482D01*
X328890Y370050D01*
X328712Y370169D01*
Y426965D01*
X329893Y428147D01*
X329893Y428147D01*
X330314Y428777D01*
X330462Y429520D01*
Y431956D01*
X330753Y432013D01*
X331343Y432407D01*
X331737Y432997D01*
X331770Y433165D01*
X331804Y432997D01*
D02*
G37*
G36*
X325303D02*
X325697Y432407D01*
X326287Y432013D01*
X326578Y431956D01*
Y430325D01*
X325397Y429143D01*
X324976Y428513D01*
X324828Y427770D01*
Y370169D01*
X324650Y370050D01*
X324270Y369482D01*
X323890Y370050D01*
X323712Y370169D01*
Y431906D01*
X324253Y432013D01*
X324843Y432407D01*
X325237Y432997D01*
X325270Y433165D01*
X325303Y432997D01*
D02*
G37*
G36*
X312304D02*
X312697Y432407D01*
X313287Y432013D01*
X313578Y431956D01*
Y428480D01*
X313726Y427737D01*
X314147Y427107D01*
X314828Y426426D01*
Y370169D01*
X314650Y370050D01*
X314270Y369482D01*
X313890Y370050D01*
X313712Y370169D01*
Y425230D01*
X313564Y425973D01*
X313144Y426603D01*
X310962Y428784D01*
Y431956D01*
X311253Y432013D01*
X311843Y432407D01*
X312237Y432997D01*
X312270Y433165D01*
X312304Y432997D01*
D02*
G37*
G36*
X299303D02*
X299697Y432407D01*
X299828Y432320D01*
Y370169D01*
X299650Y370050D01*
X299270Y369482D01*
X298890Y370050D01*
X298712Y370169D01*
Y430763D01*
X298564Y431507D01*
X298229Y432009D01*
X298253Y432013D01*
X298843Y432407D01*
X299237Y432997D01*
X299270Y433165D01*
X299303Y432997D01*
D02*
G37*
G36*
X318804D02*
X319197Y432407D01*
X319787Y432013D01*
X319828Y432005D01*
Y370169D01*
X319650Y370050D01*
X319270Y369482D01*
X318890Y370050D01*
X318712Y370169D01*
Y427230D01*
X318564Y427973D01*
X318144Y428603D01*
X317462Y429285D01*
Y431956D01*
X317753Y432013D01*
X318343Y432407D01*
X318737Y432997D01*
X318770Y433165D01*
X318804Y432997D01*
D02*
G37*
G36*
X305804D02*
X306197Y432407D01*
X306787Y432013D01*
X307078Y431956D01*
Y427980D01*
X307226Y427237D01*
X307647Y426606D01*
X309828Y424425D01*
Y370169D01*
X309650Y370050D01*
X309270Y369482D01*
X308890Y370050D01*
X308239Y370486D01*
X307470Y370639D01*
X306070D01*
X305301Y370486D01*
X304650Y370050D01*
X304270Y369482D01*
X303890Y370050D01*
X303712Y370169D01*
Y431875D01*
X304058D01*
X304753Y432013D01*
X305343Y432407D01*
X305737Y432997D01*
X305770Y433165D01*
X305804Y432997D01*
D02*
G37*
G36*
X260580Y398942D02*
X256607D01*
X256239Y399832D01*
X255784Y400287D01*
X260580Y405083D01*
Y398942D01*
D02*
G37*
D12*
X485860Y495420D02*
X486000Y495280D01*
X485860Y495420D02*
Y507860D01*
X486000Y508000D01*
D15*
X783550Y328000D02*
Y329285D01*
X784265Y330000D02*
X793000D01*
X783550Y329285D02*
X784265Y330000D01*
X195230Y528000D02*
X216000D01*
X195000Y527770D02*
X195230Y528000D01*
X521000Y343550D02*
Y357000D01*
X671450Y323550D02*
X800000Y195000D01*
X465550Y323550D02*
X671450D01*
X239000Y350759D02*
Y394000D01*
Y350759D02*
X262529Y327230D01*
X272470D01*
X235000Y398000D02*
X239000Y394000D01*
X199220Y398000D02*
X235000D01*
X196000Y394780D02*
X199220Y398000D01*
X196000Y386000D02*
Y394780D01*
X215550Y335000D02*
X244000D01*
X256770Y322230D02*
X272470D01*
X244000Y335000D02*
X256770Y322230D01*
X183000Y335000D02*
X196450D01*
X199000Y337550D01*
Y352000D01*
X212000Y368000D02*
Y382900D01*
X215100Y386000D01*
X228000D01*
X212000Y338550D02*
Y352000D01*
Y338550D02*
X215550Y335000D01*
X196000Y386000D02*
X199000Y383000D01*
Y368000D02*
Y383000D01*
X371044Y342115D02*
X375168Y346239D01*
X378000Y350622D02*
Y365450D01*
X356185Y342115D02*
X371044D01*
X375168Y347789D02*
X378000Y350622D01*
X375168Y346239D02*
Y347789D01*
X378000Y365450D02*
X378550Y366000D01*
X396415Y331885D02*
X416885D01*
X396250Y332050D02*
X396415Y331885D01*
X355955Y322115D02*
X356070Y322230D01*
X338115Y322115D02*
X355955D01*
X338000Y322000D02*
X338115Y322115D01*
X365495Y316505D02*
X385889Y296111D01*
X394089D01*
X396250Y293950D01*
X356795Y316505D02*
X365495D01*
X356070Y317230D02*
X356795Y316505D01*
X381650Y319350D02*
X396250D01*
X373770Y327230D02*
X381650Y319350D01*
X356070Y327230D02*
X373770D01*
X145550Y196000D02*
X159000D01*
X458550Y511965D02*
Y513277D01*
X462515Y517242D01*
X273000Y215000D02*
X286770Y228770D01*
Y277930D01*
X134450Y215000D02*
X273000D01*
X478550Y535000D02*
Y556780D01*
X97770Y292230D02*
X272470D01*
X50000Y340000D02*
X97770Y292230D01*
X125400Y150800D02*
Y194950D01*
X126450Y196000D01*
Y207000D02*
X134450Y215000D01*
X126450Y196000D02*
Y207000D01*
X400000Y473000D02*
X500000D01*
X572200Y400800D01*
X831000D01*
X359000Y514000D02*
X400000Y473000D01*
X341000Y514000D02*
X359000D01*
X335020Y498430D02*
Y508020D01*
X341000Y514000D01*
X478550Y525550D02*
Y535000D01*
X800000Y135000D02*
X850000Y85000D01*
X800000Y135000D02*
Y195000D01*
X477000Y304450D02*
X663550D01*
X780000Y188000D01*
Y120000D02*
Y188000D01*
Y120000D02*
X850000Y50000D01*
X462803Y304450D02*
X477000D01*
X744550Y196000D02*
X745550Y195000D01*
X756000D01*
X445750Y306650D02*
X460603D01*
X462803Y304450D01*
X461350Y319350D02*
X465550Y323550D01*
X445750Y319350D02*
X461350D01*
X725400Y150800D02*
Y195950D01*
X725450Y196000D01*
X325400Y150800D02*
Y193050D01*
X324450Y194000D02*
X325400Y193050D01*
X525400Y150800D02*
Y193950D01*
X525450Y194000D01*
X562526Y218474D02*
X585000Y196000D01*
X312526Y218474D02*
X562526D01*
X585000Y196000D02*
X725450D01*
X302183Y228817D02*
Y277517D01*
Y228817D02*
X312526Y218474D01*
X301770Y277930D02*
X302183Y277517D01*
X332000Y242000D02*
Y249000D01*
X336770Y253770D02*
Y277930D01*
X332000Y249000D02*
X336770Y253770D01*
X311000Y208000D02*
X365000D01*
X379000Y194000D01*
X525450D01*
X296770Y222230D02*
Y277930D01*
Y222230D02*
X311000Y208000D01*
X332000Y242000D02*
X334550Y239450D01*
X349000D01*
X291770Y208230D02*
X306000Y194000D01*
X324450D01*
X291770Y208230D02*
Y277930D01*
X219000Y305000D02*
X232450D01*
X404970Y534000D02*
X434700Y563730D01*
X332000Y534000D02*
X404970D01*
X385570Y540000D02*
X409300Y563730D01*
X327000Y540000D02*
X385570D01*
X328520Y498430D02*
Y530520D01*
X332000Y534000D01*
X322020Y535020D02*
X327000Y540000D01*
X322020Y498430D02*
Y535020D01*
X315520Y498430D02*
Y539520D01*
X366170Y546000D02*
X383900Y563730D01*
X315520Y539520D02*
X322000Y546000D01*
X366170D01*
X309020Y542020D02*
X318436Y551436D01*
X346206D01*
X309020Y498430D02*
Y542020D01*
X346206Y551436D02*
X358500Y563730D01*
X193430Y551000D02*
X234000D01*
X180700Y563730D02*
X193430Y551000D01*
X296020Y498430D02*
Y524980D01*
X240000Y545000D02*
X276000D01*
X296020Y524980D01*
X234000Y551000D02*
X240000Y545000D01*
X244230Y551000D02*
X279000D01*
X302520Y527480D01*
X231500Y563730D02*
X244230Y551000D01*
X302520Y498430D02*
Y527480D01*
X155000Y520270D02*
X155300Y520570D01*
Y563730D01*
X110450Y538000D02*
Y557431D01*
X104500Y563381D02*
X110450Y557431D01*
X104500Y563381D02*
Y563730D01*
X446000Y279000D02*
Y293700D01*
X445750Y293950D02*
X446000Y293700D01*
X478550Y556780D02*
X485500Y563730D01*
X470242Y517242D02*
X478550Y525550D01*
X462515Y517242D02*
X470242D01*
X458550Y511965D02*
X462515Y508000D01*
X486000D01*
X485720Y495000D02*
X486000Y495280D01*
X244000Y322000D02*
X248770Y317230D01*
X272470D01*
Y312230D02*
X282230D01*
X291000Y321000D01*
Y333000D01*
X291385Y333385D01*
Y361145D01*
X291770Y361530D01*
X306885Y344115D02*
Y361415D01*
Y344115D02*
X307000Y344000D01*
X234000Y503000D02*
X248450D01*
X252000Y385000D02*
Y397000D01*
X253096Y398096D01*
Y400346D01*
X252000Y385000D02*
X255939Y381061D01*
X285550Y397000D02*
X286000Y396550D01*
X252000Y397000D02*
X266450D01*
X255939Y381061D02*
X263489D01*
X253096Y400346D02*
X266450Y413700D01*
X263489Y381061D02*
X264000Y380550D01*
X266450Y413700D02*
Y416000D01*
X285520Y416030D02*
X285550Y416000D01*
X286000Y382000D02*
Y396550D01*
X296020Y431513D02*
Y441030D01*
Y431513D02*
X296770Y430763D01*
Y361530D02*
Y430763D01*
X309020Y427980D02*
Y441030D01*
X301770Y361530D02*
Y440280D01*
X306770Y361530D02*
X306885Y361415D01*
X338000Y337000D02*
X338115Y337115D01*
X355955D01*
X356070Y337230D01*
X309020Y427980D02*
X311770Y425230D01*
Y361530D02*
Y425230D01*
X326770Y361530D02*
Y427770D01*
X315520Y428480D02*
Y441030D01*
Y428480D02*
X316770Y427230D01*
Y361530D02*
Y427230D01*
X326770Y427770D02*
X328520Y429520D01*
X321770Y361530D02*
Y440780D01*
X328520Y429520D02*
Y441030D01*
X331770Y361530D02*
Y424517D01*
X335020Y427767D01*
Y441030D01*
X341770Y361530D02*
Y372770D01*
X348000Y379000D01*
Y385000D01*
X356070Y342230D02*
X356185Y342115D01*
X321770Y440780D02*
X322020Y441030D01*
X357420D02*
X357450Y441000D01*
X341520Y441030D02*
X357420D01*
X341520Y498430D02*
X341950Y498000D01*
X341520Y498430D02*
X342090Y499000D01*
X354000D01*
X376550Y441000D02*
X376718Y441168D01*
X390761D01*
X378550Y366000D02*
X391000D01*
X397450Y372450D01*
X411000D01*
X464550Y351000D02*
X480000D01*
X301770Y440280D02*
X302520Y441030D01*
X544550Y194000D02*
X559000D01*
X343550D02*
X358000D01*
D17*
X199000Y352000D02*
D03*
Y368000D02*
D03*
X211000D02*
D03*
Y352000D02*
D03*
D18*
X521000Y343550D02*
D03*
Y324450D02*
D03*
Y304550D02*
D03*
Y285450D02*
D03*
X264000Y380550D02*
D03*
Y361450D02*
D03*
X349000Y239450D02*
D03*
Y258550D02*
D03*
X411000Y372450D02*
D03*
Y391550D02*
D03*
X477000Y304450D02*
D03*
Y323550D02*
D03*
X778000Y330450D02*
D03*
Y349550D02*
D03*
D19*
X215100Y386000D02*
D03*
X196000D02*
D03*
X145550Y196000D02*
D03*
X126450D02*
D03*
X440450Y513000D02*
D03*
X459550D02*
D03*
X215550Y335000D02*
D03*
X196450D02*
D03*
X232450Y305000D02*
D03*
X251550D02*
D03*
X285550Y416000D02*
D03*
X266450D02*
D03*
X267550Y503000D02*
D03*
X248450D02*
D03*
X378550Y366000D02*
D03*
X359450D02*
D03*
X285550Y397000D02*
D03*
X266450D02*
D03*
X357450Y441000D02*
D03*
X376550D02*
D03*
X464550Y351000D02*
D03*
X445450D02*
D03*
X725450Y196000D02*
D03*
X744550D02*
D03*
X525450Y194000D02*
D03*
X544550D02*
D03*
X324450D02*
D03*
X343550D02*
D03*
X478550Y535000D02*
D03*
X459450D02*
D03*
X110450Y534000D02*
D03*
X129550D02*
D03*
D20*
X445750Y332050D02*
D03*
Y319350D02*
D03*
Y306650D02*
D03*
Y293950D02*
D03*
X396250D02*
D03*
Y306650D02*
D03*
Y319350D02*
D03*
Y332050D02*
D03*
D21*
X272470Y347230D02*
D03*
Y342230D02*
D03*
Y337230D02*
D03*
Y332230D02*
D03*
Y327230D02*
D03*
Y322230D02*
D03*
Y317230D02*
D03*
Y312230D02*
D03*
Y307230D02*
D03*
Y302230D02*
D03*
Y297230D02*
D03*
Y292230D02*
D03*
X356070D02*
D03*
Y297230D02*
D03*
Y302230D02*
D03*
Y307230D02*
D03*
Y312230D02*
D03*
Y317230D02*
D03*
Y322230D02*
D03*
Y327230D02*
D03*
Y332230D02*
D03*
Y337230D02*
D03*
Y342230D02*
D03*
Y347230D02*
D03*
D22*
X286770Y277930D02*
D03*
X291770D02*
D03*
X296770D02*
D03*
X301770D02*
D03*
X306770D02*
D03*
X311770D02*
D03*
X316770D02*
D03*
X321770D02*
D03*
X326770D02*
D03*
X331770D02*
D03*
X336770D02*
D03*
X341770D02*
D03*
Y361530D02*
D03*
X336770D02*
D03*
X331770D02*
D03*
X326770D02*
D03*
X321770D02*
D03*
X316770D02*
D03*
X311770D02*
D03*
X306770D02*
D03*
X301770D02*
D03*
X296770D02*
D03*
X291770D02*
D03*
X286770D02*
D03*
D23*
X283020Y498430D02*
D03*
X289520D02*
D03*
X296020D02*
D03*
X302520D02*
D03*
X309020D02*
D03*
X315520D02*
D03*
X322020D02*
D03*
X328520D02*
D03*
X335020D02*
D03*
X341520D02*
D03*
Y441030D02*
D03*
X335020D02*
D03*
X328520D02*
D03*
X322020D02*
D03*
X315520D02*
D03*
X309020D02*
D03*
X302520D02*
D03*
X296020D02*
D03*
X289520D02*
D03*
X283020D02*
D03*
D24*
X485720Y495000D02*
D03*
X440000D02*
D03*
D25*
X462860Y428706D02*
D03*
D26*
X195000Y504770D02*
D03*
Y527770D02*
D03*
D27*
X155000Y516270D02*
D03*
D43*
X411000Y415220D02*
D03*
D44*
Y433000D02*
D03*
D45*
X396250Y309000D02*
Y317000D01*
X414000Y436000D02*
X459846D01*
X462140Y433706D01*
D46*
X640000Y270000D02*
D03*
X120000Y450000D02*
D03*
D47*
X50000Y305000D02*
D03*
Y340000D02*
D03*
X850000Y255000D02*
D03*
Y150000D02*
D03*
Y185000D02*
D03*
Y220000D02*
D03*
Y50000D02*
D03*
Y85000D02*
D03*
X50000Y459200D02*
D03*
Y510000D02*
D03*
X61900Y125400D02*
D03*
X125400Y150800D02*
D03*
X261900Y125400D02*
D03*
X325400Y150800D02*
D03*
X461900Y125400D02*
D03*
X525400Y150800D02*
D03*
X661900Y125400D02*
D03*
X725400Y150800D02*
D03*
X831000Y400800D02*
D03*
Y350000D02*
D03*
Y451600D02*
D03*
Y502400D02*
D03*
D48*
X485500Y563730D02*
D03*
X460100D02*
D03*
X434700D02*
D03*
X409300D02*
D03*
X383900D02*
D03*
X358500D02*
D03*
X333100D02*
D03*
X307700D02*
D03*
X282300D02*
D03*
X256900D02*
D03*
X231500D02*
D03*
X206100D02*
D03*
X180700D02*
D03*
X155300D02*
D03*
X129900D02*
D03*
X104500D02*
D03*
D49*
X50000Y250000D02*
D03*
Y560000D02*
D03*
X800000D02*
D03*
Y250000D02*
D03*
D50*
X793000Y330000D02*
D03*
X216000Y528000D02*
D03*
X521000Y357000D02*
D03*
X183000Y335000D02*
D03*
X375168Y346239D02*
D03*
X416885Y331885D02*
D03*
X338000Y322000D02*
D03*
X159000Y196000D02*
D03*
X358000Y194000D02*
D03*
X756000Y195000D02*
D03*
X332000Y249000D02*
D03*
X219000Y305000D02*
D03*
X446000Y279000D02*
D03*
X486000Y508000D02*
D03*
X286000Y382000D02*
D03*
X234000Y503000D02*
D03*
X252000Y397000D02*
D03*
X291000Y333000D02*
D03*
X228000Y386000D02*
D03*
X244000Y322000D02*
D03*
X307000Y344000D02*
D03*
X390761Y441168D02*
D03*
X338000Y337000D02*
D03*
X348000Y385000D02*
D03*
X354000Y499000D02*
D03*
X480000Y351000D02*
D03*
X559000Y194000D02*
D03*
M02*
