G04*
G04 #@! TF.GenerationSoftware,Altium Limited,Altium Designer,25.4.2 (15)*
G04*
G04 Layer_Color=128*
%FSLAX44Y44*%
%MOMM*%
G71*
G04*
G04 #@! TF.SameCoordinates,E3562E81-9C74-4326-8BCA-3B8FE58CD66A*
G04*
G04*
G04 #@! TF.FilePolarity,Positive*
G04*
G01*
G75*
%ADD15C,0.1270*%
D15*
X620000Y270000D02*
X660000D01*
X640000Y250000D02*
Y290000D01*
X100000Y450000D02*
X140000D01*
X120000Y430000D02*
Y470000D01*
X42500Y305000D02*
X57500D01*
X50000Y297500D02*
Y312500D01*
X42500Y340000D02*
X57500D01*
X50000Y332500D02*
Y347500D01*
X842500Y255000D02*
X857500D01*
X850000Y247500D02*
Y262500D01*
X842500Y150000D02*
X857500D01*
X850000Y142500D02*
Y157500D01*
X842500Y185000D02*
X857500D01*
X850000Y177500D02*
Y192500D01*
X842500Y220000D02*
X857500D01*
X850000Y212500D02*
Y227500D01*
X842500Y50000D02*
X857500D01*
X850000Y42500D02*
Y57500D01*
X842500Y85000D02*
X857500D01*
X850000Y77500D02*
Y92500D01*
X42500Y459200D02*
X57500D01*
X50000Y451700D02*
Y466700D01*
X42500Y510000D02*
X57500D01*
X50000Y502500D02*
Y517500D01*
X80000Y100000D02*
X120000D01*
X100000Y80000D02*
Y120000D01*
X54400Y125400D02*
X69400D01*
X61900Y117900D02*
Y132900D01*
X117900Y150800D02*
X132900D01*
X125400Y143300D02*
Y158300D01*
X280000Y100000D02*
X320000D01*
X300000Y80000D02*
Y120000D01*
X254400Y125400D02*
X269400D01*
X261900Y117900D02*
Y132900D01*
X317900Y150800D02*
X332900D01*
X325400Y143300D02*
Y158300D01*
X480000Y100000D02*
X520000D01*
X500000Y80000D02*
Y120000D01*
X454400Y125400D02*
X469400D01*
X461900Y117900D02*
Y132900D01*
X517900Y150800D02*
X532900D01*
X525400Y143300D02*
Y158300D01*
X680000Y100000D02*
X720000D01*
X700000Y80000D02*
Y120000D01*
X654400Y125400D02*
X669400D01*
X661900Y117900D02*
Y132900D01*
X717900Y150800D02*
X732900D01*
X725400Y143300D02*
Y158300D01*
X480500Y563730D02*
X490500D01*
X485500Y558730D02*
Y568730D01*
X455100Y563730D02*
X465100D01*
X460100Y558730D02*
Y568730D01*
X429700Y563730D02*
X439700D01*
X434700Y558730D02*
Y568730D01*
X404300Y563730D02*
X414300D01*
X409300Y558730D02*
Y568730D01*
X378900Y563730D02*
X388900D01*
X383900Y558730D02*
Y568730D01*
X353500Y563730D02*
X363500D01*
X358500Y558730D02*
Y568730D01*
X328100Y563730D02*
X338100D01*
X333100Y558730D02*
Y568730D01*
X302700Y563730D02*
X312700D01*
X307700Y558730D02*
Y568730D01*
X277300Y563730D02*
X287300D01*
X282300Y558730D02*
Y568730D01*
X251900Y563730D02*
X261900D01*
X256900Y558730D02*
Y568730D01*
X226500Y563730D02*
X236500D01*
X231500Y558730D02*
Y568730D01*
X201100Y563730D02*
X211100D01*
X206100Y558730D02*
Y568730D01*
X175700Y563730D02*
X185700D01*
X180700Y558730D02*
Y568730D01*
X150300Y563730D02*
X160300D01*
X155300Y558730D02*
Y568730D01*
X124900Y563730D02*
X134900D01*
X129900Y558730D02*
Y568730D01*
X99500Y563730D02*
X109500D01*
X104500Y558730D02*
Y568730D01*
X35000Y250000D02*
X65000D01*
X50000Y235000D02*
Y265000D01*
X35000Y560000D02*
X65000D01*
X50000Y545000D02*
Y575000D01*
X785000Y560000D02*
X815000D01*
X800000Y545000D02*
Y575000D01*
X785000Y250000D02*
X815000D01*
X800000Y235000D02*
Y265000D01*
X823500Y400800D02*
X838500D01*
X831000Y393300D02*
Y408300D01*
X823500Y350000D02*
X838500D01*
X831000Y342500D02*
Y357500D01*
X823500Y451600D02*
X838500D01*
X831000Y444100D02*
Y459100D01*
X823500Y502400D02*
X838500D01*
X831000Y494900D02*
Y509900D01*
X790500Y330000D02*
X795500D01*
X793000Y327500D02*
Y332500D01*
X213500Y528000D02*
X218500D01*
X216000Y525500D02*
Y530500D01*
X518500Y357000D02*
X523500D01*
X521000Y354500D02*
Y359500D01*
X180500Y335000D02*
X185500D01*
X183000Y332500D02*
Y337500D01*
X372668Y346239D02*
X377668D01*
X375168Y343739D02*
Y348739D01*
X414385Y331885D02*
X419385D01*
X416885Y329385D02*
Y334385D01*
X335500Y322000D02*
X340500D01*
X338000Y319500D02*
Y324500D01*
X156500Y196000D02*
X161500D01*
X159000Y193500D02*
Y198500D01*
X355500Y194000D02*
X360500D01*
X358000Y191500D02*
Y196500D01*
X753500Y195000D02*
X758500D01*
X756000Y192500D02*
Y197500D01*
X329500Y249000D02*
X334500D01*
X332000Y246500D02*
Y251500D01*
X216500Y305000D02*
X221500D01*
X219000Y302500D02*
Y307500D01*
X443500Y279000D02*
X448500D01*
X446000Y276500D02*
Y281500D01*
X483500Y508000D02*
X488500D01*
X486000Y505500D02*
Y510500D01*
X283500Y382000D02*
X288500D01*
X286000Y379500D02*
Y384500D01*
X231500Y503000D02*
X236500D01*
X234000Y500500D02*
Y505500D01*
X249500Y397000D02*
X254500D01*
X252000Y394500D02*
Y399500D01*
X288500Y333000D02*
X293500D01*
X291000Y330500D02*
Y335500D01*
X225500Y386000D02*
X230500D01*
X228000Y383500D02*
Y388500D01*
X241500Y322000D02*
X246500D01*
X244000Y319500D02*
Y324500D01*
X304500Y344000D02*
X309500D01*
X307000Y341500D02*
Y346500D01*
X388261Y441168D02*
X393261D01*
X390761Y438668D02*
Y443668D01*
X335500Y337000D02*
X340500D01*
X338000Y334500D02*
Y339500D01*
X345500Y385000D02*
X350500D01*
X348000Y382500D02*
Y387500D01*
X351500Y499000D02*
X356500D01*
X354000Y496500D02*
Y501500D01*
X477500Y351000D02*
X482500D01*
X480000Y348500D02*
Y353500D01*
X556500Y194000D02*
X561500D01*
X559000Y191500D02*
Y196500D01*
M02*
