M48
;Layer_Color=9474304
;FILE_FORMAT=4:4
METRIC,LZ
;TYPE=PLATED
T01F00S00C0.5000
T02F00S00C1.0000
T03F00S00C1.5000
;TYPE=NON_PLATED
T04F00S00C3.0000
T05F00S00C4.0000
%
T01
X00159Y00196
X00183Y00335
X00219Y00305
X00244Y00322
X00291Y00333
X00307Y00344
X00338Y00337
Y00322
X00375168Y00346239
X00416885Y00331885
X00446Y00279
X0048Y00351
X00521Y00357
X00486Y00508
X00354Y00499
X00390761Y00441168
X00348Y00385
X00286Y00382
X00252Y00397
X00228Y00386
X00234Y00503
X00216Y00528
X00332Y00249
X00358Y00194
X00559
X00756Y00195
X00793Y0033
T02
X001553Y0056373
X001807
X002061
X002315
X002569
X002823
X003077
X003331
X003585
X003839
X004093
X004347
X004601
X004855
X001299
X001045
T03
X006619Y001254
X0085Y00085
Y0005
X004619Y001254
X002619
X000619
X001254Y001508
X0005Y00305
Y0034
Y004592
Y0051
X003254Y001508
X005254
X007254
X0085Y0015
Y00185
Y0022
Y00255
X00831Y0035
Y004008
Y004516
Y005024
T04
X0005Y0025
X008
Y0056
X0005
T05
X007Y001
X005
X003
X001
X0012Y0045
X0064Y0027
M30
