G04*
G04 #@! TF.GenerationSoftware,Altium Limited,Altium Designer,25.4.2 (15)*
G04*
G04 Layer_Color=16711935*
%FSLAX44Y44*%
%MOMM*%
G71*
G04*
G04 #@! TF.SameCoordinates,E3562E81-9C74-4326-8BCA-3B8FE58CD66A*
G04*
G04*
G04 #@! TF.FilePolarity,Positive*
G04*
G01*
G75*
%ADD11C,0.2000*%
%ADD15C,0.1270*%
%ADD51C,0.1524*%
D11*
X377550Y337950D02*
G03*
X377550Y337950I-1000J0D01*
G01*
X255770Y349230D02*
G03*
X255770Y349230I-1500J0D01*
G01*
X284020Y427830D02*
G03*
X284020Y427830I-1000J0D01*
G01*
D15*
X514200Y323500D02*
X527800D01*
X514200Y344500D02*
X527800D01*
X514200Y323500D02*
Y344500D01*
X527800Y323500D02*
Y344500D01*
X514200Y284500D02*
X527800D01*
X514200Y305500D02*
X527800D01*
X514200Y284500D02*
Y305500D01*
X527800Y284500D02*
Y305500D01*
X195050Y392800D02*
X216050D01*
X195050Y379200D02*
X216050D01*
X195050D02*
Y392800D01*
X216050Y379200D02*
Y392800D01*
X125500Y189200D02*
Y202800D01*
X146500Y189200D02*
Y202800D01*
X125500D02*
X146500D01*
X125500Y189200D02*
X146500D01*
X441000Y288000D02*
Y338000D01*
X401000Y288000D02*
Y338000D01*
Y288000D02*
X441000D01*
X401000Y338000D02*
X441000D01*
X278270Y355730D02*
X350270D01*
Y283730D02*
Y355730D01*
X278270Y283730D02*
X350270D01*
X278270D02*
Y355730D01*
X439500Y506200D02*
X460500D01*
X439500Y519800D02*
X460500D01*
Y506200D02*
Y519800D01*
X439500Y506200D02*
Y519800D01*
X195500Y328200D02*
Y341800D01*
X216500Y328200D02*
Y341800D01*
X195500D02*
X216500D01*
X195500Y328200D02*
X216500D01*
X252500Y298200D02*
Y311800D01*
X231500Y298200D02*
Y311800D01*
Y298200D02*
X252500D01*
X231500Y311800D02*
X252500D01*
X257200Y360500D02*
X270800D01*
X257200Y381500D02*
X270800D01*
X257200D02*
X257200Y360500D01*
X270800Y381500D02*
X270800Y360500D01*
X265500Y422800D02*
X286500D01*
X265500Y409200D02*
X286500D01*
X265500D02*
Y422800D01*
X286500Y409200D02*
Y422800D01*
X247500Y509800D02*
X268500D01*
X247500Y496200D02*
X268500D01*
X247500D02*
Y509800D01*
X268500Y496200D02*
Y509800D01*
X342200Y259500D02*
X355800D01*
X342200Y238500D02*
X355800D01*
Y259500D01*
X342200Y238500D02*
Y259500D01*
X358500Y359200D02*
Y372800D01*
X379500Y359200D02*
Y372800D01*
X358500D02*
X379500D01*
X358500Y359200D02*
X379500D01*
X265500Y390200D02*
Y403800D01*
X286500Y390200D02*
Y403800D01*
X265500Y403800D02*
X286500Y403800D01*
X265500Y390200D02*
X286500Y390200D01*
X279770Y491730D02*
X344770D01*
X279770Y447730D02*
X344770D01*
Y491730D01*
X279770Y447730D02*
Y491730D01*
X356500Y434200D02*
X377500D01*
X356500Y447800D02*
X377500D01*
Y434200D02*
Y447800D01*
X356500Y434200D02*
Y447800D01*
X404200Y392500D02*
X417800D01*
X404200Y371500D02*
X417800D01*
Y392500D01*
X404200Y371500D02*
Y392500D01*
X444500Y344200D02*
Y357800D01*
X465500Y344200D02*
Y357800D01*
X444500D02*
X465500D01*
X444500Y344200D02*
X465500D01*
X470200Y324500D02*
X483800D01*
X470200Y303500D02*
X483800D01*
Y324500D01*
X470200Y303500D02*
Y324500D01*
X724500Y189200D02*
X745500D01*
X724500Y202800D02*
X745500D01*
Y189200D02*
Y202800D01*
X724500Y189200D02*
Y202800D01*
X524500Y187200D02*
X545500D01*
X524500Y200800D02*
X545500D01*
Y187200D02*
Y200800D01*
X524500Y187200D02*
Y200800D01*
X323500Y187200D02*
X344500D01*
X323500Y200800D02*
X344500D01*
Y187200D02*
Y200800D01*
X323500Y187200D02*
Y200800D01*
X458500Y528200D02*
Y541800D01*
X479500Y528200D02*
Y541800D01*
X458500D02*
X479500D01*
X458500Y528200D02*
X479500D01*
X130500Y527200D02*
Y540800D01*
X109500Y527200D02*
Y540800D01*
Y527200D02*
X130500D01*
X109500Y540800D02*
X130500D01*
X771200Y350500D02*
X784800D01*
X771200Y329500D02*
X784800D01*
Y350500D01*
X771200Y329500D02*
Y350500D01*
D51*
X481402Y460964D02*
X489784D01*
Y497540D01*
X481402D02*
X489784D01*
X481402Y460964D02*
Y497540D01*
X435936Y460964D02*
X444318D01*
Y497540D01*
X435936D02*
X444318D01*
X435936Y460964D02*
Y497540D01*
X429332Y460964D02*
X496388D01*
X429332Y398988D02*
Y460964D01*
Y398988D02*
X496388D01*
Y460964D01*
M02*
