G04*
G04 #@! TF.GenerationSoftware,Altium Limited,Altium Designer,25.4.2 (15)*
G04*
G04 Layer_Color=16711935*
%FSLAX44Y44*%
%MOMM*%
G71*
G04*
G04 #@! TF.SameCoordinates,E3562E81-9C74-4326-8BCA-3B8FE58CD66A*
G04*
G04*
G04 #@! TF.FilePolarity,Negative*
G04*
G01*
G75*
%ADD37C,4.1500*%
%ADD38C,2.1500*%
%ADD39C,0.1500*%
%ADD40C,1.6500*%
%ADD41C,3.1500*%
%ADD42C,0.8500*%
D37*
X640000Y270000D02*
D03*
X120000Y450000D02*
D03*
D38*
X50000Y305000D02*
D03*
Y340000D02*
D03*
X850000Y255000D02*
D03*
Y150000D02*
D03*
Y185000D02*
D03*
Y220000D02*
D03*
Y50000D02*
D03*
Y85000D02*
D03*
X50000Y459200D02*
D03*
Y510000D02*
D03*
X61900Y125400D02*
D03*
X125400Y150800D02*
D03*
X261900Y125400D02*
D03*
X325400Y150800D02*
D03*
X461900Y125400D02*
D03*
X525400Y150800D02*
D03*
X661900Y125400D02*
D03*
X725400Y150800D02*
D03*
X831000Y400800D02*
D03*
Y350000D02*
D03*
Y451600D02*
D03*
Y502400D02*
D03*
D39*
X100000Y100000D02*
D03*
X300000D02*
D03*
X500000D02*
D03*
X700000D02*
D03*
D40*
X485500Y563730D02*
D03*
X460100D02*
D03*
X434700D02*
D03*
X409300D02*
D03*
X383900D02*
D03*
X358500D02*
D03*
X333100D02*
D03*
X307700D02*
D03*
X282300D02*
D03*
X256900D02*
D03*
X231500D02*
D03*
X206100D02*
D03*
X180700D02*
D03*
X155300D02*
D03*
X129900D02*
D03*
X104500D02*
D03*
D41*
X50000Y250000D02*
D03*
Y560000D02*
D03*
X800000D02*
D03*
Y250000D02*
D03*
D42*
X793000Y330000D02*
D03*
X216000Y528000D02*
D03*
X521000Y357000D02*
D03*
X183000Y335000D02*
D03*
X375168Y346239D02*
D03*
X416885Y331885D02*
D03*
X338000Y322000D02*
D03*
X159000Y196000D02*
D03*
X358000Y194000D02*
D03*
X756000Y195000D02*
D03*
X332000Y249000D02*
D03*
X219000Y305000D02*
D03*
X446000Y279000D02*
D03*
X486000Y508000D02*
D03*
X286000Y382000D02*
D03*
X234000Y503000D02*
D03*
X252000Y397000D02*
D03*
X291000Y333000D02*
D03*
X228000Y386000D02*
D03*
X244000Y322000D02*
D03*
X307000Y344000D02*
D03*
X390761Y441168D02*
D03*
X338000Y337000D02*
D03*
X348000Y385000D02*
D03*
X354000Y499000D02*
D03*
X480000Y351000D02*
D03*
X559000Y194000D02*
D03*
M02*
