G04*
G04 #@! TF.GenerationSoftware,Altium Limited,Altium Designer,25.4.2 (15)*
G04*
G04 Layer_Color=255*
%FSLAX44Y44*%
%MOMM*%
G71*
G04*
G04 #@! TF.SameCoordinates,E3562E81-9C74-4326-8BCA-3B8FE58CD66A*
G04*
G04*
G04 #@! TF.FilePolarity,Positive*
G04*
G01*
G75*
%ADD17R,0.6000X0.7000*%
%ADD18R,1.3800X0.9200*%
%ADD19R,0.9200X1.3800*%
G04:AMPARAMS|DCode=20|XSize=1.97mm|YSize=0.59mm|CornerRadius=0.0738mm|HoleSize=0mm|Usage=FLASHONLY|Rotation=0.000|XOffset=0mm|YOffset=0mm|HoleType=Round|Shape=RoundedRectangle|*
%AMROUNDEDRECTD20*
21,1,1.9700,0.4425,0,0,0.0*
21,1,1.8225,0.5900,0,0,0.0*
1,1,0.1475,0.9113,-0.2213*
1,1,0.1475,-0.9113,-0.2213*
1,1,0.1475,-0.9113,0.2213*
1,1,0.1475,0.9113,0.2213*
%
%ADD20ROUNDEDRECTD20*%
G04:AMPARAMS|DCode=21|XSize=0.28mm|YSize=1.56mm|CornerRadius=0.07mm|HoleSize=0mm|Usage=FLASHONLY|Rotation=90.000|XOffset=0mm|YOffset=0mm|HoleType=Round|Shape=RoundedRectangle|*
%AMROUNDEDRECTD21*
21,1,0.2800,1.4200,0,0,90.0*
21,1,0.1400,1.5600,0,0,90.0*
1,1,0.1400,0.7100,0.0700*
1,1,0.1400,0.7100,-0.0700*
1,1,0.1400,-0.7100,-0.0700*
1,1,0.1400,-0.7100,0.0700*
%
%ADD21ROUNDEDRECTD21*%
G04:AMPARAMS|DCode=22|XSize=0.28mm|YSize=1.56mm|CornerRadius=0.07mm|HoleSize=0mm|Usage=FLASHONLY|Rotation=0.000|XOffset=0mm|YOffset=0mm|HoleType=Round|Shape=RoundedRectangle|*
%AMROUNDEDRECTD22*
21,1,0.2800,1.4200,0,0,0.0*
21,1,0.1400,1.5600,0,0,0.0*
1,1,0.1400,0.0700,-0.7100*
1,1,0.1400,-0.0700,-0.7100*
1,1,0.1400,-0.0700,0.7100*
1,1,0.1400,0.0700,0.7100*
%
%ADD22ROUNDEDRECTD22*%
G04:AMPARAMS|DCode=23|XSize=1.57mm|YSize=0.41mm|CornerRadius=0.0513mm|HoleSize=0mm|Usage=FLASHONLY|Rotation=90.000|XOffset=0mm|YOffset=0mm|HoleType=Round|Shape=RoundedRectangle|*
%AMROUNDEDRECTD23*
21,1,1.5700,0.3075,0,0,90.0*
21,1,1.4675,0.4100,0,0,90.0*
1,1,0.1025,0.1538,0.7338*
1,1,0.1025,0.1538,-0.7338*
1,1,0.1025,-0.1538,-0.7338*
1,1,0.1025,-0.1538,0.7338*
%
%ADD23ROUNDEDRECTD23*%
%ADD24R,0.8890X1.2192*%
%ADD25R,6.7310X6.5024*%
%ADD26R,2.0000X1.3000*%
%ADD27R,2.0000X2.0000*%
%AMCUSTOMSHAPE43*
4,1,5,0.0000,1.0000,-0.6000,0.2000,-0.6000,-1.0000,0.6000,-1.0000,0.6000,0.2000,0.0000,1.0000,0.0*%
%ADD43CUSTOMSHAPE43*%

%AMCUSTOMSHAPE44*
4,1,5,-0.6000,0.9000,0.6000,0.9000,0.6000,-0.9000,0.0000,-0.1000,-0.6000,-0.9000,-0.6000,0.9000,0.0*%
%ADD44CUSTOMSHAPE44*%

%ADD46C,4.0000*%
%ADD47C,2.0000*%
%ADD48C,1.5000*%
%ADD49C,3.0000*%
D17*
X199000Y352000D02*
D03*
Y368000D02*
D03*
X211000D02*
D03*
Y352000D02*
D03*
D18*
X521000Y343550D02*
D03*
Y324450D02*
D03*
Y304550D02*
D03*
Y285450D02*
D03*
X264000Y380550D02*
D03*
Y361450D02*
D03*
X349000Y239450D02*
D03*
Y258550D02*
D03*
X411000Y372450D02*
D03*
Y391550D02*
D03*
X477000Y304450D02*
D03*
Y323550D02*
D03*
X778000Y330450D02*
D03*
Y349550D02*
D03*
D19*
X215100Y386000D02*
D03*
X196000D02*
D03*
X145550Y196000D02*
D03*
X126450D02*
D03*
X440450Y513000D02*
D03*
X459550D02*
D03*
X215550Y335000D02*
D03*
X196450D02*
D03*
X232450Y305000D02*
D03*
X251550D02*
D03*
X285550Y416000D02*
D03*
X266450D02*
D03*
X267550Y503000D02*
D03*
X248450D02*
D03*
X378550Y366000D02*
D03*
X359450D02*
D03*
X285550Y397000D02*
D03*
X266450D02*
D03*
X357450Y441000D02*
D03*
X376550D02*
D03*
X464550Y351000D02*
D03*
X445450D02*
D03*
X725450Y196000D02*
D03*
X744550D02*
D03*
X525450Y194000D02*
D03*
X544550D02*
D03*
X324450D02*
D03*
X343550D02*
D03*
X478550Y535000D02*
D03*
X459450D02*
D03*
X110450Y534000D02*
D03*
X129550D02*
D03*
D20*
X445750Y332050D02*
D03*
Y319350D02*
D03*
Y306650D02*
D03*
Y293950D02*
D03*
X396250D02*
D03*
Y306650D02*
D03*
Y319350D02*
D03*
Y332050D02*
D03*
D21*
X272470Y347230D02*
D03*
Y342230D02*
D03*
Y337230D02*
D03*
Y332230D02*
D03*
Y327230D02*
D03*
Y322230D02*
D03*
Y317230D02*
D03*
Y312230D02*
D03*
Y307230D02*
D03*
Y302230D02*
D03*
Y297230D02*
D03*
Y292230D02*
D03*
X356070D02*
D03*
Y297230D02*
D03*
Y302230D02*
D03*
Y307230D02*
D03*
Y312230D02*
D03*
Y317230D02*
D03*
Y322230D02*
D03*
Y327230D02*
D03*
Y332230D02*
D03*
Y337230D02*
D03*
Y342230D02*
D03*
Y347230D02*
D03*
D22*
X286770Y277930D02*
D03*
X291770D02*
D03*
X296770D02*
D03*
X301770D02*
D03*
X306770D02*
D03*
X311770D02*
D03*
X316770D02*
D03*
X321770D02*
D03*
X326770D02*
D03*
X331770D02*
D03*
X336770D02*
D03*
X341770D02*
D03*
Y361530D02*
D03*
X336770D02*
D03*
X331770D02*
D03*
X326770D02*
D03*
X321770D02*
D03*
X316770D02*
D03*
X311770D02*
D03*
X306770D02*
D03*
X301770D02*
D03*
X296770D02*
D03*
X291770D02*
D03*
X286770D02*
D03*
D23*
X283020Y498430D02*
D03*
X289520D02*
D03*
X296020D02*
D03*
X302520D02*
D03*
X309020D02*
D03*
X315520D02*
D03*
X322020D02*
D03*
X328520D02*
D03*
X335020D02*
D03*
X341520D02*
D03*
Y441030D02*
D03*
X335020D02*
D03*
X328520D02*
D03*
X322020D02*
D03*
X315520D02*
D03*
X309020D02*
D03*
X302520D02*
D03*
X296020D02*
D03*
X289520D02*
D03*
X283020D02*
D03*
D24*
X485720Y495000D02*
D03*
X440000D02*
D03*
D25*
X462860Y428706D02*
D03*
D26*
X195000Y504770D02*
D03*
Y527770D02*
D03*
D27*
X155000Y516270D02*
D03*
D43*
X411000Y415220D02*
D03*
D44*
Y433000D02*
D03*
D46*
X640000Y270000D02*
D03*
X120000Y450000D02*
D03*
D47*
X50000Y305000D02*
D03*
Y340000D02*
D03*
X850000Y255000D02*
D03*
Y150000D02*
D03*
Y185000D02*
D03*
Y220000D02*
D03*
Y50000D02*
D03*
Y85000D02*
D03*
X50000Y459200D02*
D03*
Y510000D02*
D03*
X61900Y125400D02*
D03*
X125400Y150800D02*
D03*
X261900Y125400D02*
D03*
X325400Y150800D02*
D03*
X461900Y125400D02*
D03*
X525400Y150800D02*
D03*
X661900Y125400D02*
D03*
X725400Y150800D02*
D03*
X831000Y400800D02*
D03*
Y350000D02*
D03*
Y451600D02*
D03*
Y502400D02*
D03*
D48*
X485500Y563730D02*
D03*
X460100D02*
D03*
X434700D02*
D03*
X409300D02*
D03*
X383900D02*
D03*
X358500D02*
D03*
X333100D02*
D03*
X307700D02*
D03*
X282300D02*
D03*
X256900D02*
D03*
X231500D02*
D03*
X206100D02*
D03*
X180700D02*
D03*
X155300D02*
D03*
X129900D02*
D03*
X104500D02*
D03*
D49*
X50000Y250000D02*
D03*
Y560000D02*
D03*
X800000D02*
D03*
Y250000D02*
D03*
M02*
